<svg width="24" height="36" viewBox="0 0 24 36" fill="none" xmlns="http://www.w3.org/2000/svg">
<path fill-rule="evenodd" clip-rule="evenodd" d="M5.02227 0.125271C4.95282 0.194205 4.90668 0.305798 4.91977 0.373263C4.93287 0.440729 5.37255 0.827285 5.89688 1.23231L6.85013 1.96871L6.38356 2.43541C5.91613 2.90295 5.83242 3.08255 6.01442 3.22668C6.06804 3.26918 6.52113 3.4365 7.0213 3.59863C7.79965 3.85095 7.94907 3.87838 8.0578 3.78889C8.33021 3.56478 8.17284 3.37506 7.51484 3.13449C7.17189 3.00906 6.87765 2.89677 6.86097 2.88502C6.84429 2.87328 7.01093 2.70295 7.2312 2.50658C7.80931 1.99128 7.78803 1.92049 6.83283 1.18308C5.11292 -0.144669 5.22726 -0.0778984 5.02227 0.125271ZM18.3323 0.289801C16.0576 2.01037 16.1111 1.93471 16.7666 2.50326C16.9894 2.69646 17.156 2.86625 17.1369 2.88047C17.1176 2.89476 16.8214 3.00906 16.4784 3.13449C15.8204 3.37506 15.663 3.56478 15.9354 3.78889C16.0442 3.87838 16.1936 3.85095 16.9719 3.59863C17.4721 3.4365 17.9253 3.26918 17.9788 3.22668C18.1606 3.08278 18.0773 2.90319 17.612 2.43641L17.1478 1.97065L18.0982 1.23571C18.621 0.831535 19.0597 0.444516 19.073 0.375659C19.0973 0.25062 18.9018 0 18.78 0C18.7445 0 18.5431 0.130449 18.3323 0.289801ZM0.129644 1.55179C-0.0677884 1.66585 -0.0380917 1.87459 0.207588 2.09839C0.325517 2.20581 0.980637 2.72335 1.6635 3.24847L2.90507 4.20327L2.18963 4.87584C1.48844 5.53504 1.35609 5.76108 1.57161 5.93133C1.75758 6.07817 4.17673 6.82693 4.30612 6.77771C4.45819 6.71982 4.47986 6.38906 4.33862 6.28211C4.28507 6.24154 3.8291 6.07221 3.32535 5.90591C2.8216 5.7396 2.40951 5.58373 2.40951 5.55954C2.40951 5.53527 2.69174 5.2423 3.03672 4.90853C3.48498 4.47476 3.65739 4.25567 3.64079 4.14098C3.62574 4.03681 3.04771 3.53967 1.99344 2.72436C1.10012 2.03355 0.346017 1.46941 0.317645 1.47064C0.289273 1.47196 0.204704 1.50843 0.129644 1.55179ZM21.9997 2.72799C20.9749 3.52282 20.367 4.04562 20.3525 4.14461C20.3361 4.25505 20.515 4.48132 20.9565 4.90853C21.3015 5.2423 21.5837 5.53666 21.5837 5.56255C21.5837 5.58844 21.2769 5.70869 20.9017 5.82979C19.7553 6.19988 19.5572 6.30305 19.5572 6.52987C19.5572 6.64378 19.6125 6.74927 19.6871 6.77771C19.8165 6.82693 22.2357 6.07817 22.4216 5.93133C22.6371 5.76124 22.5049 5.53504 21.8057 4.87785L21.0924 4.20729L22.3318 3.25118C23.8234 2.10055 24 1.94329 24 1.7657C24 1.65047 23.7924 1.46832 23.6612 1.46832C23.6406 1.46832 22.893 2.03517 21.9997 2.72799ZM13.1658 2.35009C12.9729 2.49298 12.6441 2.78456 12.4352 2.99809L12.0554 3.38626L11.5635 3.05234C10.6904 2.45975 10.5163 2.49661 10.6416 3.24739C10.719 3.71146 10.7183 3.71424 10.5201 3.75311C8.40808 4.16764 6.53984 5.30815 5.27481 6.95522C4.73801 7.65422 4.08702 9.00624 3.84235 9.93051C3.65567 10.6355 3.63479 10.8661 3.604 12.558C3.57305 14.255 3.55637 14.4383 3.40735 14.7135C3.20477 15.0876 3.13158 15.9335 3.26557 16.3532C3.48926 17.0538 3.96168 17.4653 4.54221 17.4653C4.80566 17.4653 4.82538 17.484 4.93138 17.8324C5.34207 19.1832 6.19868 20.5143 7.16846 21.3089C7.36378 21.4689 7.52162 21.6337 7.5192 21.6749C7.51679 21.7163 7.27602 21.8299 6.98412 21.9273C4.26785 22.8342 1.93038 25.2606 1.12787 28.0063C0.75795 29.272 0.73371 29.5514 0.73371 32.5484C0.73371 35.3047 0.738231 35.3887 0.897081 35.601C0.986872 35.7211 1.1928 35.8633 1.35469 35.9171C1.58735 35.9943 3.8482 36.0105 12.1425 35.9943C21.7696 35.9756 22.651 35.9634 22.8185 35.8458C23.2581 35.5372 23.2575 35.5405 23.2849 33.0373C23.3206 29.7715 23.1806 28.6536 22.5446 27.1254C21.5332 24.695 19.5079 22.8013 16.964 21.9074L16.3584 21.6946L16.6912 21.4188C17.7874 20.5101 18.5644 19.3398 19.0467 17.871C19.1724 17.4885 19.1949 17.4653 19.4414 17.4653C19.8086 17.4653 20.0287 17.3672 20.3168 17.0749C20.8278 16.5568 20.9511 15.4991 20.5872 14.7554C20.4277 14.4294 20.4146 14.2917 20.4141 12.9393C20.4134 10.7391 20.1929 9.59789 19.5073 8.24711C18.3636 5.99347 16.2104 4.31919 13.8283 3.83124C13.4128 3.74616 13.3579 3.71308 13.3365 3.53464C13.3232 3.42421 13.4021 3.1113 13.5119 2.83935C13.8429 2.01902 13.7638 1.90728 13.1658 2.35009ZM1.42281 8.79062C1.10659 9.12695 0.774241 9.75392 0.773384 10.0157C0.771669 10.5855 1.39608 11.0467 1.96 10.8923C2.58433 10.7214 2.7979 10.112 2.46313 9.45686C2.24972 9.03931 1.85548 8.5781 1.71199 8.5781C1.6628 8.5781 1.53271 8.6737 1.42281 8.79062ZM21.9595 8.82478C21.5759 9.23189 21.3266 9.79418 21.3741 10.1451C21.4515 10.7173 22.0164 11.0577 22.5817 10.8729C22.9195 10.7625 23.2209 10.3576 23.2199 10.0157C23.2186 9.62811 22.5331 8.5781 22.2813 8.5781C22.2321 8.5781 22.0873 8.68908 21.9595 8.82478ZM2.01979 10.0456C2.01979 10.1713 1.81768 10.3555 1.67972 10.3555C1.60372 10.3555 1.39623 10.1109 1.39655 10.0216C1.3967 9.97147 1.46942 9.8125 1.55812 9.66822L1.71939 9.40585L1.86959 9.65075C1.95221 9.78537 2.01979 9.96312 2.01979 10.0456ZM22.4847 9.74604C22.6847 10.1297 22.4627 10.4552 22.1237 10.2753C21.9378 10.1766 21.9324 9.97533 22.1078 9.67239C22.2601 9.40933 22.3146 9.41999 22.4847 9.74604ZM17.056 11.0948C16.766 11.6624 16.7126 11.837 16.7148 12.2117C16.7199 13.1014 17.4845 13.8332 18.4088 13.8332H18.8016L18.7536 15.2822C18.7184 16.3468 18.6635 16.9016 18.5467 17.374C17.9898 19.6272 16.2787 21.4711 14.1011 22.1646C13.2287 22.4424 12.675 22.5117 11.6637 22.4697C10.8805 22.4372 10.5785 22.3874 9.97008 22.1906C8.06263 21.5739 6.53181 20.1776 5.76757 18.3575C5.41261 17.512 5.28595 16.8002 5.23732 15.3763L5.19374 14.0987L5.60506 13.6375C6.13071 13.0481 6.6315 12.2872 7.01927 11.4884L7.32544 10.8579L7.28662 11.3248C7.25264 11.7341 7.07804 12.4063 6.88794 12.86C6.83182 12.9941 6.85668 12.9906 7.16074 12.8214C7.58826 12.5836 8.12966 11.9961 8.54869 11.3154L8.87792 10.7806L8.87839 11.2274C8.87863 11.4732 8.82625 11.7991 8.76194 11.9517C8.61892 12.2911 8.61899 12.2876 8.75789 12.2876C9.15221 12.2876 10.1647 11.8564 10.9293 11.3629C11.3926 11.0639 11.7876 10.8192 11.8071 10.8192C11.8747 10.8192 11.7406 11.4772 11.6259 11.708C11.5626 11.8355 11.4359 12.0221 11.3445 12.1227L11.1782 12.3056L11.451 12.2521C11.9536 12.1535 12.8238 11.693 13.3603 11.2417L13.8919 10.7946L13.8395 11.1739C13.8055 11.419 13.6514 11.7856 13.404 12.2093C13.1934 12.5701 13.0352 12.8794 13.0526 12.8967C13.0701 12.9139 13.4446 12.7504 13.885 12.5332C14.8344 12.0651 15.7414 11.3647 16.4394 10.5607L16.9461 9.97711L17.173 10.1996L17.3999 10.4221L17.056 11.0948ZM18.7353 10.66C19.1324 11.1963 19.4771 11.8981 19.478 12.1716C19.4801 12.8943 18.5754 13.4349 17.9234 13.1005C17.3462 12.8046 17.1856 12.2719 17.4808 11.6325C17.6956 11.1675 18.2943 10.2783 18.3927 10.2783C18.4257 10.2783 18.5798 10.45 18.7353 10.66ZM8.72492 13.6507C8.0896 13.7763 7.94353 13.855 7.94353 14.0717C7.94353 14.3267 8.17386 14.3621 8.9501 14.2264C9.735 14.0891 9.93305 13.961 9.76695 13.6979C9.65518 13.5209 9.43242 13.5109 8.72492 13.6507ZM14.2726 13.6168C14.1508 13.7375 14.1529 13.9618 14.2765 14.0411C14.466 14.1627 15.7725 14.3569 15.9133 14.2844C16.0718 14.2027 16.0931 13.9651 15.9523 13.8492C15.8659 13.7782 14.6986 13.524 14.4589 13.524C14.4078 13.524 14.324 13.5658 14.2726 13.6168ZM4.66988 15.7082L4.70885 16.8474L4.50807 16.8472C3.75661 16.8467 3.54866 15.2141 4.23012 14.6645C4.58492 14.3783 4.62787 14.4801 4.66988 15.7082ZM19.7631 14.6656C20.0224 14.873 20.1807 15.2571 20.1807 15.679C20.1807 16.3376 19.8774 16.8469 19.4852 16.8472L19.2844 16.8473L19.3058 15.7846C19.3177 15.2001 19.3428 14.6784 19.3619 14.6253C19.4096 14.4917 19.5651 14.5073 19.7631 14.6656ZM8.38524 14.8121C8.27331 14.923 8.34198 15.2111 8.50598 15.319L8.6787 15.4328L8.50598 15.5244C8.29225 15.6378 8.27581 15.9611 8.4783 16.0685C8.58969 16.1277 8.75337 16.0836 9.18526 15.8785C9.66274 15.6516 9.74342 15.5853 9.72221 15.4371C9.67997 15.1421 8.57387 14.625 8.38524 14.8121ZM14.6662 15.0118C14.295 15.1988 14.1791 15.297 14.1791 15.4244C14.1791 15.6361 14.2653 15.7037 14.8408 15.943C15.175 16.0819 15.3467 16.1164 15.4449 16.0643C15.6445 15.9584 15.6128 15.7114 15.3801 15.5603L15.1781 15.4291L15.3848 15.3217C15.5433 15.2394 15.5858 15.166 15.5672 15.0067C15.5328 14.7108 15.2604 14.7122 14.6662 15.0118ZM10.9775 16.7033C10.8437 16.9513 10.9575 17.6105 11.1855 17.9067C11.5817 18.4218 12.4126 18.4221 12.8061 17.9072C13.1525 17.4538 13.1442 16.538 12.7936 16.538C12.5694 16.538 12.4643 16.6977 12.4643 17.0385C12.4643 17.4491 12.2881 17.6972 11.9966 17.6972C11.7051 17.6972 11.529 17.4491 11.529 17.0385C11.529 16.8652 11.4869 16.6817 11.4354 16.6307C11.2904 16.4869 11.0759 16.521 10.9775 16.7033ZM9.22181 19.1213C8.96421 19.2325 8.85626 19.4035 8.9275 19.5876C8.9865 19.74 9.26382 19.8194 9.36998 19.7141C9.51792 19.5674 9.72292 19.6201 10.0923 19.8997C10.5448 20.2421 10.9798 20.2687 11.381 19.9786C11.5267 19.8732 11.7248 19.7459 11.8212 19.6957C12.0162 19.5942 12.1438 19.6398 12.6122 19.9786C13.0134 20.2687 13.4485 20.2421 13.9009 19.8997C14.2703 19.6201 14.4753 19.5674 14.6233 19.7141C14.7311 19.8211 15.0071 19.7391 15.0679 19.582C15.1414 19.392 14.9813 19.1849 14.686 19.0883C14.3498 18.9783 14.0096 19.0452 13.729 19.2765C13.3025 19.6281 13.1684 19.6628 12.9417 19.4799C12.8291 19.3892 12.5844 19.2434 12.3979 19.1558C11.9663 18.9534 11.677 19.0037 11.2257 19.3594C11.0374 19.5078 10.8585 19.6292 10.828 19.6292C10.7975 19.6292 10.6534 19.5425 10.5077 19.4366C10.1718 19.1923 9.78137 19.0101 9.60234 19.0139C9.52595 19.0156 9.35471 19.0639 9.22181 19.1213ZM8.48914 22.6655C8.48914 24.9855 10.6492 26.6581 12.8961 26.0781C14.4294 25.6821 15.5041 24.2724 15.5041 22.6569V22.1622L15.7964 22.2132C16.3143 22.3035 17.2529 22.6384 17.8819 22.9573C18.7993 23.4225 20.0939 24.3975 19.8939 24.4726C19.8433 24.4916 19.5763 24.6764 19.3006 24.8834C18.7138 25.3237 18.1462 26.0348 17.8239 26.733C17.4012 27.6488 17.3776 27.9171 17.3761 31.8201L17.3748 35.3943H11.9966H6.61848V34.9756C6.61848 34.444 6.56579 34.3124 6.35293 34.3124C6.08153 34.3124 5.99493 34.4657 5.99493 34.9461V35.3943H3.77906C1.86865 35.3943 1.54635 35.3776 1.44074 35.2729C1.33458 35.1676 1.31829 34.8257 1.31829 32.7013C1.31829 30.037 1.3755 29.3349 1.6766 28.3049C2.01729 27.139 2.85192 25.6068 3.4492 25.0505L3.62956 24.8824L4.17884 25.2648C4.84627 25.7296 5.43865 26.4822 5.73429 27.2413C5.93164 27.748 5.94785 27.8839 5.98947 29.3888C6.03492 31.0326 6.05713 31.1387 6.35566 31.1428C6.60367 31.1461 6.6347 30.9214 6.60305 29.3489C6.57382 27.8961 6.55667 27.741 6.36672 27.2154C5.98425 26.157 5.2593 25.2185 4.41672 24.6909C4.21313 24.5634 4.0468 24.4418 4.04703 24.4205C4.04797 24.3373 5.01681 23.5918 5.52696 23.2817C6.12027 22.9212 7.16822 22.4694 7.80565 22.2992C8.49475 22.1153 8.48914 22.1123 8.48914 22.6655ZM9.68028 22.729C11.1341 23.2185 13.0419 23.2147 14.3548 22.72C14.5797 22.6352 14.7947 22.5659 14.8328 22.5659C14.8708 22.5658 14.8842 22.7838 14.8627 23.0503C14.7899 23.9488 14.1943 24.7995 13.3023 25.2791C12.8364 25.5296 12.7791 25.5411 11.9966 25.5411C11.2486 25.5411 11.1421 25.5223 10.7586 25.3221C9.81372 24.8288 9.20591 23.9814 9.1307 23.0522C9.10911 22.7847 9.1148 22.5658 9.14348 22.5658C9.17209 22.5658 9.41363 22.6392 9.68028 22.729ZM21.1052 25.7662C21.6011 26.4798 21.9235 27.1233 22.2108 27.9734C22.5983 29.1204 22.674 29.8856 22.6745 32.6647C22.6749 34.8228 22.6587 35.1675 22.5525 35.2729C22.4469 35.3776 22.1243 35.3943 20.2108 35.3943H17.9915L18.0144 31.5883L18.0373 27.7822L18.254 27.2413C18.5689 26.4548 19.1298 25.7415 19.8006 25.2745L20.3637 24.8824L20.544 25.0505C20.6433 25.1429 20.8957 25.4649 21.1052 25.7662ZM6.08846 31.9322C6.0293 31.9908 5.99493 32.2856 5.99493 32.7342C5.99493 33.5016 6.06438 33.6507 6.39985 33.6035C6.5718 33.5793 6.58045 33.5454 6.60188 32.8169C6.62503 32.0311 6.56837 31.8394 6.31279 31.8394C6.24084 31.8394 6.13991 31.8812 6.08846 31.9322Z" fill="#9C449C"/>
</svg>
