<svg width="30" height="36" viewBox="0 0 30 36" fill="none" xmlns="http://www.w3.org/2000/svg">
<path fill-rule="evenodd" clip-rule="evenodd" d="M24.406 0.127662C24.2485 0.256009 24.2398 0.310582 24.2064 1.37596L24.1716 2.49001L23.0671 2.52518C22.0772 2.55668 21.9522 2.57455 21.8637 2.69685C21.7164 2.90037 21.7402 3.25447 21.9118 3.41094C22.0443 3.53177 22.1766 3.54492 23.2598 3.54492C24.4436 3.54492 24.465 3.54224 24.7414 3.35778C25.2003 3.0515 25.2528 2.85881 25.2528 1.4823V0.284913L25.069 0.139196C24.8399 -0.0424589 24.6194 -0.0463269 24.406 0.127662ZM26.6798 0.16606C26.5117 0.335408 26.5085 0.360444 26.5085 1.50501C26.5085 2.84207 26.5785 3.08603 27.047 3.37958C27.2971 3.53634 27.3725 3.54492 28.5067 3.54492C29.5848 3.54492 29.7171 3.5317 29.8495 3.41094C30.0375 3.23949 30.0496 2.80648 29.871 2.64347C29.7687 2.55014 29.5465 2.52539 28.6676 2.50949L27.5898 2.49001L27.5549 1.37596C27.5215 0.310582 27.5128 0.256009 27.3553 0.127662C27.1313 -0.0549771 26.8851 -0.040982 26.6798 0.16606ZM12.5567 1.64321C12.4991 1.65713 12.2166 1.70685 11.9288 1.75369C10.9241 1.91706 9.30274 2.5673 9.14117 2.87168C9.02412 3.09215 9.05691 3.29329 9.23995 3.47775C9.46402 3.70372 9.65446 3.69556 10.1656 3.43802C12.2117 2.40724 14.5882 2.42208 16.5848 3.47797C18.8052 4.65228 20.1854 6.93784 20.5408 10.0294L20.5829 10.3954L20.2147 10.2871C19.6706 10.1271 19.3447 9.91196 18.6416 9.24885C17.4838 8.15689 17.2155 8.10935 15.1838 8.6363C13.3782 9.10461 13.2413 9.10468 11.4506 8.63856C9.40438 8.10597 9.10051 8.16118 7.92255 9.27916C7.27623 9.89255 6.84191 10.1759 6.33065 10.3178L6.06905 10.3905L6.06933 10.1324C6.06975 9.76393 6.25091 8.69883 6.41819 8.081C6.62398 7.32133 7.3199 5.95326 7.77759 5.40858C8.34334 4.73534 8.44986 4.55608 8.40452 4.35368C8.35185 4.11836 8.12067 3.93172 7.88181 3.93172C7.65607 3.93172 7.23563 4.34017 6.70218 5.07776C5.80376 6.32016 5.16462 8.15907 5.0461 9.84262L5.0018 10.4721H4.52165C3.94112 10.4721 3.66201 10.5799 3.36769 10.9179C3.06613 11.2642 2.97697 11.643 3.01618 12.4122C3.05657 13.2044 3.25496 13.6823 3.77265 14.234C4.12109 14.6054 4.83613 15.0434 5.09423 15.0434C5.1769 15.0434 5.26152 15.1777 5.37118 15.4829C5.98039 17.1785 7.30867 18.9593 8.82523 20.1136C9.03591 20.2739 9.20821 20.4523 9.20821 20.5099C9.20821 20.6984 8.77089 21.4471 8.58129 21.5831C8.47944 21.6563 7.8221 21.8765 7.1206 22.0727C4.77557 22.7283 3.62818 23.2917 2.60111 24.2914C1.9684 24.9073 1.90498 25.0705 2.16763 25.4071C2.40816 25.7155 2.69222 25.6632 3.10693 25.2344C4.04485 24.2646 5.26605 23.6666 7.62342 23.0227C8.28342 22.8425 8.58261 22.7898 8.68369 22.8363C8.7612 22.8718 9.49946 23.3043 10.3243 23.7974C12.4357 25.0594 12.5564 25.1166 13.1885 25.155C13.8981 25.198 14.1332 25.0955 16.2852 23.8038L18.0256 22.7594L19.1944 23.0824C21.5851 23.7434 22.7723 24.3645 23.6348 25.4057C24.0126 25.8617 24.4482 26.7543 24.584 27.3506C24.6412 27.602 24.8777 29.2951 25.1093 31.1131C25.341 32.931 25.5493 34.5371 25.5723 34.6822L25.6139 34.9459H23.1313H20.6487V32.4844C20.6487 30.1167 20.6434 30.0177 20.5092 29.8823C20.3015 29.6729 19.9281 29.6948 19.7469 29.927C19.607 30.1063 19.6023 30.1906 19.6023 32.5291V34.9459H13.2891H6.97592V32.4844C6.97592 30.1167 6.97062 30.0177 6.8364 29.8823C6.62866 29.6729 6.25531 29.6948 6.07414 29.927C5.9342 30.1063 5.92953 30.1906 5.92953 32.5291V34.9459H3.48796C1.10087 34.9459 1.04639 34.9428 1.04639 34.8066C1.04639 34.6069 1.79093 28.7916 1.92724 27.9265C2.05622 27.1082 2.01534 26.9053 1.6971 26.7834C1.3391 26.6461 1.09606 26.8414 0.947609 27.3857C0.860759 27.7041 0 34.627 0 35.0071C0 35.3233 0.0351586 35.4643 0.151238 35.613C0.47213 36.0243 -0.32438 36.0009 13.3043 35.9992C25.359 35.9978 25.8568 35.9926 26.1301 35.8675C26.437 35.727 26.648 35.3937 26.648 35.0495C26.648 34.9441 26.4282 33.1494 26.1595 31.0612C25.7441 27.8327 25.639 27.1683 25.4577 26.6219C24.9282 25.0261 24.0012 23.9721 22.3927 23.1375C21.5972 22.7247 20.8408 22.4492 19.3802 22.0405C18.1822 21.7053 18.104 21.6736 17.8798 21.4318C17.6766 21.2126 17.3383 20.4597 17.4145 20.3959C17.4476 20.3682 17.6611 20.2049 17.889 20.0329C19.2581 18.9993 20.6214 17.1666 21.2039 15.5765C21.3744 15.1111 21.3957 15.0854 21.6955 14.9863C22.3824 14.7591 23.0145 14.1986 23.3758 13.4962C23.5138 13.228 23.5428 13.0499 23.5655 12.329C23.589 11.5848 23.575 11.4439 23.4534 11.2037C23.1914 10.6863 22.7912 10.4721 22.0866 10.4721H21.6364L21.5889 9.99741C21.1578 5.68686 18.6783 2.59902 14.9982 1.78942C14.522 1.68463 12.8086 1.58202 12.5567 1.64321ZM21.9487 4.92143C21.7183 5.10406 21.6966 5.48045 21.9044 5.68989C22.0319 5.81845 22.1369 5.83054 23.1252 5.83054H24.2064V6.84571C24.2064 7.40404 24.2352 7.93711 24.2703 8.0303C24.3458 8.23045 24.6932 8.39459 24.9008 8.3282C25.2248 8.22454 25.2636 8.04064 25.2399 6.7199C25.2149 5.31533 25.1826 5.22186 24.6236 4.93387C24.3437 4.7897 24.2193 4.77564 23.2244 4.77564C22.2253 4.77564 22.1169 4.78802 21.9487 4.92143ZM27.1643 4.90961C27.0071 4.98163 26.803 5.14711 26.7109 5.27728C26.5516 5.50247 26.5423 5.57519 26.5215 6.76118L26.4997 8.00821L26.6831 8.1931C26.8318 8.34304 26.9086 8.36984 27.0886 8.33481C27.5118 8.25239 27.5549 8.12109 27.5549 6.9128V5.83054H28.6361C29.6244 5.83054 29.7294 5.81845 29.8569 5.68989C30.0647 5.48045 30.043 5.10406 29.8126 4.92143C29.6443 4.78788 29.5372 4.77578 28.5395 4.77719C27.6284 4.77845 27.4035 4.80011 27.1643 4.90961ZM11.3538 9.70457C12.6559 10.0427 12.7691 10.0606 13.4286 10.0327C13.9643 10.0101 14.4339 9.92434 15.4517 9.66329C16.468 9.40259 16.838 9.33493 17.0381 9.37333C17.2374 9.41152 17.4634 9.57819 17.9932 10.0775C18.7659 10.8057 19.364 11.1661 20.1159 11.3566L20.5932 11.4774L20.5609 12.856C20.5346 13.9799 20.5018 14.3259 20.3835 14.7288C19.7686 16.822 17.9638 18.975 15.9193 20.0543C14.5633 20.7701 13.3909 20.9578 12.2072 20.6486C9.58177 19.9627 7.02126 17.4204 6.24296 14.7269C6.08551 14.1819 6.05447 13.9124 6.01938 12.788L5.97871 11.482L6.45991 11.3638C7.21303 11.1786 7.77236 10.8544 8.46911 10.199C9.20828 9.50372 9.44309 9.34752 9.74934 9.34717C9.87434 9.34703 10.5964 9.50787 11.3538 9.70457ZM4.9529 12.3611C4.9529 12.8199 4.97285 13.3421 4.99727 13.5215C5.03068 13.7674 5.01896 13.8478 4.94955 13.8478C4.78304 13.8478 4.22092 13.1892 4.13191 12.8897C4.02148 12.5182 4.02015 11.7219 4.12974 11.6114C4.17578 11.565 4.37983 11.527 4.58318 11.527H4.9529V12.3611ZM15.8005 11.957C15.2633 12.1915 14.7637 12.4422 14.6901 12.5139C14.3883 12.8085 14.6119 13.3555 15.0341 13.3555C15.345 13.3555 17.1565 12.5508 17.3577 12.3234C17.6318 12.0135 17.4077 11.5254 16.993 11.5288C16.8743 11.5297 16.3376 11.7224 15.8005 11.957ZM22.4609 11.6307C22.5185 11.7005 22.5383 11.9354 22.5218 12.3515C22.4994 12.9176 22.4784 12.9952 22.2689 13.2886C22.1432 13.4647 21.9469 13.6643 21.8329 13.7322L21.6253 13.8558V12.6914V11.527H22.0005C22.2459 11.527 22.4051 11.5629 22.4609 11.6307ZM9.53573 11.6755C9.34257 11.7888 9.25739 12.0807 9.35094 12.3084C9.41658 12.4683 9.61198 12.5825 10.4877 12.9729C11.0693 13.2323 11.6333 13.4455 11.7409 13.4469C12.157 13.452 12.3973 12.8729 12.0974 12.5876C11.9235 12.4221 10.018 11.5967 9.81651 11.5995C9.73134 11.6007 9.605 11.6348 9.53573 11.6755ZM9.86032 13.9576C9.69423 14.125 9.68355 14.1749 9.70832 14.6685C9.73099 15.1219 9.75868 15.2187 9.89785 15.3323C10.1192 15.513 10.4066 15.5007 10.5913 15.3026C10.7192 15.1652 10.7429 15.0572 10.7429 14.6116C10.7429 14.1503 10.7224 14.0639 10.5815 13.9304C10.3643 13.7247 10.0807 13.7354 9.86032 13.9576ZM15.9172 13.9402C15.7893 14.0776 15.7656 14.1857 15.7656 14.6313C15.7656 15.0925 15.7861 15.1789 15.927 15.3124C16.1412 15.5153 16.4278 15.5073 16.6407 15.2927C16.7903 15.1419 16.812 15.0571 16.812 14.6214C16.812 14.1857 16.7903 14.1009 16.6407 13.9501C16.421 13.7286 16.1183 13.7245 15.9172 13.9402ZM12.7232 17.0354C12.2261 17.2245 11.8591 17.5909 11.8591 17.8981C11.8591 18.0727 12.186 18.3487 12.3928 18.3487C12.498 18.3487 12.7032 18.2655 12.8489 18.1637C13.0667 18.0115 13.1683 17.9849 13.4217 18.0137C13.5912 18.033 13.8267 18.1182 13.9451 18.2032C14.3857 18.5195 14.9331 18.2176 14.8244 17.7183C14.77 17.4687 14.3274 17.1361 13.8845 17.012C13.5594 16.921 12.9943 16.9323 12.7232 17.0354ZM10.696 21.2318C10.9494 21.3475 11.4325 21.5272 11.7695 21.6309C12.2961 21.7929 12.5097 21.8198 13.2891 21.8224C14.3017 21.8257 14.7689 21.7249 15.8283 21.2745C16.4009 21.031 16.5327 21.014 16.5331 21.1835C16.5332 21.2296 16.6448 21.4538 16.7812 21.6818C16.9176 21.9097 17.0038 22.1201 16.9728 22.1492C16.8819 22.2348 14.3468 23.738 13.961 23.935C13.5852 24.127 13.1862 24.1655 12.8577 24.0413C12.7497 24.0006 11.9647 23.5495 11.1135 23.0392L9.56559 22.1112L9.70615 21.9002C9.78345 21.7842 9.91494 21.5397 9.99831 21.3569C10.0817 21.174 10.1691 21.0238 10.1927 21.0228C10.2161 21.0219 10.4426 21.116 10.696 21.2318Z" fill="#9C449C"/>
</svg>
