<svg width="30" height="35" viewBox="0 0 30 35" fill="none" xmlns="http://www.w3.org/2000/svg">
<path fill-rule="evenodd" clip-rule="evenodd" d="M11.9038 0.0340681C10.4074 0.208165 9.60734 0.384723 8.12424 0.868378C6.68607 1.33733 6.03745 1.44777 4.94859 1.40906C3.94012 1.37323 3.50309 1.24509 2.81658 0.78386C2.42807 0.522852 2.36278 0.502064 1.93044 0.502064C1.41058 0.502064 1.19206 0.611404 0.914344 1.01047C0.572244 1.50213 0.187714 2.81401 0.0526636 3.95022C-0.0261158 4.6131 -0.0230402 4.66363 0.106628 4.83424C0.202324 4.9602 0.320458 5.02153 0.495282 5.03617C0.90337 5.07029 0.998646 4.91705 1.09602 4.07063C1.23128 2.89463 1.64852 1.55218 1.89297 1.50609C1.957 1.49406 2.11323 1.56162 2.24003 1.65626C2.59863 1.92376 3.33973 2.23824 3.87126 2.3484C4.13696 2.40345 4.72693 2.44906 5.18227 2.44974C6.19935 2.45118 7.02755 2.29678 8.47864 1.83521C10.3059 1.25391 11.0802 1.10299 12.5679 1.0381C14.5215 0.952896 16.3587 1.31483 18.0623 2.12049C18.5305 2.34191 18.8131 2.4388 18.9011 2.4081C19.161 2.31729 19.2785 2.16043 19.2785 1.90386C19.2785 1.60456 19.191 1.51751 18.5996 1.22806C17.4221 0.651817 16.0163 0.251723 14.5997 0.0896614C13.8073 -0.00101102 12.4468 -0.029047 11.9038 0.0340681ZM23.2978 0.868857C21.5887 1.30895 20.3516 2.28946 19.6198 3.78433C19.2669 4.50512 19.1377 5.00601 19.0897 5.83854C19.005 7.30961 19.516 8.66033 20.5739 9.76166L21.0066 10.2121L20.551 11.6681C20.3004 12.4689 20.0738 13.0997 20.0474 13.0699C20.021 13.0401 19.9611 12.7541 19.9142 12.4345C19.701 10.9786 19.3538 9.63338 19.0008 8.89542C18.7216 8.31193 18.0575 7.63962 17.4903 7.3665C16.6219 6.94822 15.8634 7.02446 14.6453 7.65233C11.9916 9.02028 11.8605 9.02863 9.8455 7.95779C8.42726 7.20403 8.26907 7.14899 7.49875 7.14126C6.92164 7.13551 6.8293 7.15377 6.40507 7.35802C5.87353 7.61384 5.18982 8.27651 4.92154 8.796C4.59314 9.43173 4.15024 11.1352 3.9311 12.6054C3.88112 12.9407 3.8728 12.9187 3.50148 11.479L3.12276 10.0107L2.7499 9.62832C2.06269 8.92353 1.66677 8.20157 1.31334 7.00881C1.19947 6.62444 1.05436 6.27707 0.987741 6.22941C0.804738 6.09853 0.492067 6.12663 0.32619 6.2889C0.198409 6.4139 0.182821 6.48857 0.215465 6.81884C0.314586 7.82096 1.06303 9.35651 1.85991 10.1927C2.15594 10.5033 2.17859 10.559 2.47274 11.6971C2.82211 13.0488 2.83078 13.1183 2.6512 13.1183C2.40395 13.1183 1.5378 13.5989 1.27783 13.8805C1.13516 14.0349 0.920076 14.3651 0.799845 14.6142C0.606566 15.0147 0.581751 15.1345 0.585596 15.6483C0.591328 16.4128 0.776078 16.8832 1.27923 17.4149C1.75429 17.9169 2.28428 18.1791 2.94199 18.2378L3.42711 18.281L3.41648 19.1357C3.40355 20.1841 3.47891 20.6001 3.79675 21.2341C4.44062 22.5183 6.25394 23.6157 8.46116 24.0569C8.8524 24.135 8.8631 24.1432 8.8631 24.3621V24.5871L8.07663 24.6211C7.4176 24.6495 7.17455 24.6937 6.57689 24.8939C4.60475 25.5544 3.30114 26.9595 2.72767 29.0427C2.56095 29.6485 2.54648 29.8114 2.54516 31.1023C2.5439 32.3685 2.56193 32.5868 2.73137 33.3589C2.98484 34.5134 3.04761 34.7131 3.20559 34.8677C3.33784 34.9971 3.53007 35 11.9232 35C19.3228 35 20.5256 34.9863 20.6509 34.9004C20.8093 34.7919 20.9298 34.4222 21.1758 33.2905C21.3072 32.686 21.3325 32.3508 21.336 31.1707C21.3395 29.9352 21.3214 29.6974 21.1834 29.1667C20.9902 28.4241 20.6632 27.6434 20.3914 27.2764C20.2116 27.0336 20.1524 26.9995 19.9111 26.9995C19.706 26.9995 19.6082 27.0382 19.5271 27.1515C19.3622 27.3818 19.391 27.5398 19.7256 28.2383C20.2149 29.2599 20.2888 29.6349 20.2906 31.1023C20.2919 32.1627 20.2654 32.4973 20.1272 33.1708L19.9623 33.9743H19.3059H18.6494V32.8771C18.6494 31.8033 18.6457 31.7763 18.4778 31.6121C18.2576 31.3967 17.9543 31.3927 17.7528 31.6024C17.6097 31.7515 17.6008 31.8253 17.6008 32.8675V33.9743H11.9388H6.27673V32.8579C6.27673 31.7794 6.27128 31.7365 6.11498 31.5929C5.90031 31.3957 5.61315 31.4034 5.39981 31.6121C5.23184 31.7763 5.2282 31.8032 5.2282 32.8797V33.9794L4.58315 33.9598L3.93809 33.9401L3.81625 33.4272C3.50197 32.1037 3.47569 30.344 3.75453 29.2902C3.94117 28.5848 4.36365 27.753 4.78782 27.256C5.64153 26.2557 6.99637 25.6319 8.31507 25.6319H8.8631L8.86415 25.8883C8.86576 26.2827 9.05631 26.9855 9.26189 27.355C9.65096 28.0543 10.4779 28.6589 11.302 28.8466C12.5583 29.1327 14.0535 28.4544 14.6331 27.3355C14.8497 26.9173 15.0145 26.3081 15.0145 25.9252V25.6319H15.5625C16.276 25.6319 17.0402 25.8266 17.7556 26.1907C18.0685 26.3499 18.4032 26.4739 18.4992 26.4661C18.7713 26.4441 18.929 26.2608 18.929 25.9667C18.929 25.651 18.7249 25.4771 17.9453 25.1285C17.2246 24.8062 16.6427 24.672 15.7659 24.6261L15.0145 24.5868V24.362C15.0145 24.1433 15.0254 24.135 15.4164 24.0563C16.4681 23.8447 17.948 23.2555 18.7012 22.7485C19.1977 22.4144 19.7866 21.7922 20.031 21.3435C20.3741 20.7139 20.4668 20.2577 20.4668 19.1989V18.2652L20.9534 18.2311C22.194 18.1443 23.2024 17.1336 23.3108 15.8683C23.4088 14.7244 22.6539 13.5761 21.5678 13.217C21.3851 13.1567 21.2366 13.0713 21.2376 13.0273C21.2421 12.8389 21.9245 10.8289 21.9793 10.8427C22.1733 10.8917 22.8413 11.176 22.8423 11.21C22.8429 11.2324 22.6862 11.4265 22.494 11.6414C22.1981 11.9722 22.1445 12.0746 22.1445 12.3085C22.1445 12.5316 22.1902 12.6297 22.3821 12.8174C22.5935 13.0242 22.6611 13.0498 22.9938 13.0491C24.0247 13.0468 25.1304 12.4825 25.9341 11.5484C26.1716 11.2723 26.3547 11.1336 26.5974 11.0458C27.4485 10.7381 28.4138 10.0071 28.9628 9.25435C29.6694 8.28567 29.9963 7.28356 30 6.07507C30.0034 4.95014 29.7473 4.09354 29.1316 3.17102C28.4428 2.13868 27.4685 1.4066 26.2441 1.0009C25.6848 0.815657 25.4907 0.786185 24.6959 0.766012C23.9793 0.747823 23.6837 0.769568 23.2978 0.868857ZM25.6678 1.90215C26.472 2.1034 26.9919 2.4014 27.635 3.02961C28.5779 3.95076 28.9569 4.83725 28.9516 6.10926C28.949 6.74588 28.9191 6.94542 28.7568 7.40781C28.5043 8.12771 28.1515 8.68283 27.6229 9.1924C27.199 9.60104 26.4153 10.0605 25.8294 10.244C25.642 10.3027 25.4872 10.4297 25.2982 10.6797C24.9468 11.1447 24.5364 11.5009 24.1065 11.7141C23.9142 11.8094 23.7403 11.8874 23.7201 11.8874C23.6999 11.8874 23.7932 11.6849 23.9275 11.4373C24.1956 10.9429 24.2086 10.8792 24.0926 10.6302C24.0104 10.4536 23.9793 10.4389 23.1243 10.1722C20.6389 9.39665 19.4128 6.53999 20.5641 4.20726C21.4767 2.35825 23.6206 1.38998 25.6678 1.90215ZM23.9954 3.09081C23.3238 3.39675 22.8387 4.06715 22.9872 4.48399C23.1313 4.88833 23.6255 4.94966 23.8717 4.59381C23.9406 4.49432 24.096 4.30997 24.2171 4.18415C24.4061 3.98762 24.4837 3.95528 24.7658 3.95528C25.0462 3.95528 25.1291 3.98933 25.332 4.18777C25.5259 4.37746 25.5697 4.47251 25.5697 4.70404C25.5697 5.25047 25.2052 5.59641 24.6294 5.59641C23.9863 5.59641 23.7522 5.92484 23.7522 6.82698C23.7522 7.39611 23.7667 7.46312 23.9238 7.61671C24.0182 7.70902 24.1769 7.78458 24.2765 7.78458C24.3761 7.78458 24.5348 7.70902 24.6291 7.61671C24.7732 7.47584 24.8007 7.38305 24.8007 7.03862V6.62834L25.0629 6.58177C25.9648 6.42169 26.6182 5.68229 26.6182 4.82166C26.6182 4.26012 26.5015 3.93182 26.1716 3.5653C25.6137 2.94523 24.7354 2.7537 23.9954 3.09081ZM8.10068 8.25654C8.30857 8.32814 8.84821 8.5875 9.29985 8.83306C11.5007 10.0294 12.365 10.0404 14.4713 8.8987C15.5024 8.33976 16.0218 8.12997 16.3776 8.12881C17.0406 8.12648 17.8681 8.78437 18.1633 9.54866C18.8173 11.2414 19.3533 15.392 19.3748 18.9306C19.3833 20.3323 19.3833 20.3324 19.1892 20.719C18.8888 21.3173 18.1786 21.9301 17.3038 22.3456C15.9602 22.9836 14.4604 23.2964 12.457 23.3563C8.00981 23.4892 4.67765 22.0506 4.48032 19.9123C4.4007 19.05 4.66304 15.0043 4.92084 13.1183C5.16962 11.2983 5.59945 9.61301 5.93854 9.12826C6.22493 8.71886 6.52271 8.45102 6.87089 8.28971C7.29485 8.09332 7.60242 8.08505 8.10068 8.25654ZM23.9238 8.29436C23.8156 8.40014 23.7522 8.54032 23.7522 8.67353C23.7522 8.93604 24.0248 9.22057 24.2765 9.22057C24.5281 9.22057 24.8007 8.93604 24.8007 8.67353C24.8007 8.41101 24.5281 8.12648 24.2765 8.12648C24.1769 8.12648 24.0182 8.20204 23.9238 8.29436ZM7.1698 12.3045C6.42247 12.5664 6.13385 13.0357 6.50838 13.3799C6.71844 13.5729 6.93164 13.5672 7.35455 13.3573C7.83114 13.1208 8.47172 13.1211 8.99235 13.3583C9.44475 13.5642 9.65684 13.5726 9.84173 13.3918C10.1686 13.072 9.93987 12.6325 9.30117 12.3532C8.80837 12.1377 7.71699 12.1127 7.1698 12.3045ZM14.0386 12.3106C13.8718 12.4857 13.8543 12.756 13.9969 12.9552C14.0524 13.0327 14.2962 13.1836 14.5386 13.2905C15.6876 13.7973 17.5309 13.4005 17.5309 12.6464C17.5309 12.3854 17.316 12.1609 17.0661 12.1609C16.9642 12.1609 16.7117 12.2418 16.5051 12.3408C16.1743 12.4991 16.0677 12.5167 15.6137 12.4882C15.2574 12.4658 15.0191 12.4102 14.8426 12.3084C14.5135 12.1185 14.2207 12.1193 14.0386 12.3106ZM3.12464 14.332C3.55461 15.9357 3.61228 16.3339 3.50568 16.9647C3.46325 17.2157 3.45591 17.2211 3.1547 17.2211C2.28897 17.2211 1.63608 16.5473 1.63084 15.6483C1.62678 14.9468 2.01607 14.4103 2.70369 14.1699C3.05348 14.0476 3.04775 14.0454 3.12464 14.332ZM7.74739 14.2253C7.62674 14.3519 7.60486 14.4656 7.60486 14.9655C7.60486 15.4945 7.62178 15.5716 7.76662 15.7048C7.99555 15.9152 8.32527 15.9012 8.50849 15.6733C8.62669 15.5263 8.65339 15.3957 8.65339 14.9645C8.65339 14.5333 8.62669 14.4027 8.50849 14.2558C8.32136 14.023 7.95403 14.0083 7.74739 14.2253ZM15.3691 14.2558C15.2509 14.4027 15.2242 14.5333 15.2242 14.9645C15.2242 15.3957 15.2509 15.5263 15.3691 15.6733C15.5584 15.9088 15.9059 15.9189 16.1207 15.6952C16.2527 15.5578 16.2727 15.4587 16.2727 14.9431C16.2727 14.4403 16.2512 14.3281 16.1329 14.2123C15.9247 14.0087 15.5506 14.03 15.3691 14.2558ZM21.5931 14.3803C21.9214 14.5928 22.1998 15.0467 22.2584 15.4649C22.3837 16.3588 21.6418 17.2153 20.7387 17.2196L20.4164 17.2211L20.3723 16.8621C20.2627 15.9692 20.3493 15.4781 20.8478 14.1648C20.89 14.0539 21.2496 14.1578 21.5931 14.3803ZM13.3182 18.5263C12.9614 18.6086 12.5525 18.8196 12.2553 19.0749C12.0556 19.2464 12.0087 19.3353 12.0087 19.5425C12.0087 20.0418 12.5021 20.1877 12.974 19.828C13.5724 19.3718 14.2602 19.3691 14.8409 19.8205C15.1642 20.0718 15.5032 20.093 15.7108 19.875C15.8997 19.6767 15.8912 19.4008 15.6895 19.188C15.1434 18.6115 14.1506 18.3345 13.3182 18.5263ZM13.9544 25.3925C13.9339 26.2938 13.9117 26.4566 13.7719 26.7342C13.3096 27.652 12.2482 28.0998 11.2911 27.7807C10.8649 27.6387 10.3692 27.2033 10.1386 26.7686C9.96664 26.4445 9.9507 26.3415 9.92512 25.3925L9.89751 24.3668H11.9377H13.9778L13.9544 25.3925Z" fill="#9C449C"/>
</svg>
