<svg width="34" height="35" viewBox="0 0 34 35" fill="none" xmlns="http://www.w3.org/2000/svg">
<path fill-rule="evenodd" clip-rule="evenodd" d="M21.9196 0.113676C21.4378 0.279371 21.0654 0.544156 20.7998 0.909603C20.389 1.47487 20.3766 1.56575 20.3766 3.99635C20.3766 5.214 20.3522 6.21023 20.3223 6.21023C20.2924 6.21023 20.2083 6.11018 20.1352 5.98798C20.0622 5.86578 19.674 5.44042 19.2726 5.04277C17.8618 3.64512 16.1597 2.75599 14.244 2.41605C13.4214 2.27011 10.8388 2.20542 9.71566 2.30267C7.34148 2.50816 5.29163 3.64382 3.97033 5.48542C3.68255 5.88663 3.57495 5.98025 3.25305 6.1095C2.33399 6.47864 1.42178 7.32278 0.973948 8.21855C0.517256 9.13189 0.485979 9.4455 0.567353 12.2965L0.638556 14.7925L0.477883 14.9635C0.127268 15.3366 -0.00171275 15.761 1.71445e-05 16.5363C0.00126267 17.1163 0.029287 17.3142 0.145743 17.5656C0.358382 18.0248 0.680904 18.3503 1.15552 18.5846C1.56225 18.7855 1.61048 18.793 2.4975 18.793H3.41753L3.76641 19.4597C3.95829 19.8265 4.27881 20.339 4.47871 20.5988C4.67855 20.8586 4.87064 21.1086 4.90544 21.1544C4.94911 21.2117 4.59226 21.7532 3.75942 22.8937L2.55002 24.5498L1.31834 29.2354C0.377688 32.8138 0.0961993 33.9796 0.127199 34.1684C0.179373 34.486 0.362119 34.7299 0.660698 34.8803C0.883301 34.9925 1.50904 34.9999 10.7884 35C20.6732 35.0001 20.679 35.0001 20.977 34.8575C21.303 34.7016 21.4911 34.4804 21.6123 34.1107C21.7064 33.8236 21.4786 30.675 21.3228 30.1103C21.2028 29.675 20.9576 29.1256 20.813 28.9677C20.6525 28.7925 20.2952 28.8109 20.1118 29.0038C19.9196 29.206 19.9227 29.3431 20.1305 29.8485C20.3516 30.3864 20.4261 30.8595 20.5431 32.4699C20.6097 33.3854 20.6179 33.8302 20.5691 33.8889C20.517 33.9515 20.1666 33.9744 19.261 33.9744H18.0239V32.8552C18.0239 31.8266 18.0123 31.7216 17.8805 31.5559C17.693 31.3204 17.387 31.3152 17.1559 31.5436C16.9892 31.7083 16.986 31.7328 16.986 32.8429V33.9744H11.3119C8.19121 33.9744 5.63788 33.964 5.63788 33.9514C5.63788 33.9332 6.59604 30.2736 6.8897 29.1703L6.95793 28.9139L8.32192 28.9121C9.54758 28.9106 9.73157 28.895 10.1368 28.7583C10.5219 28.6283 10.6582 28.6142 11.0709 28.661C12.0415 28.7713 13.4256 28.4917 14.2696 28.0151C14.4692 27.9024 14.8224 27.6691 15.0545 27.4967L15.4764 27.1832L16.2831 27.3008C17.359 27.4575 17.5407 27.5068 18.2454 27.8336C18.7923 28.0872 18.8661 28.1051 19.0525 28.0287C19.3099 27.9234 19.4404 27.6399 19.3454 27.3928C19.188 26.9836 18.1575 26.5743 16.6435 26.3198C15.2359 26.0831 15.0767 26.0002 14.9071 25.4162C14.8575 25.2451 14.8741 25.2075 15.0358 25.1238C15.5817 24.8412 15.9034 24.2573 15.8963 23.5623L15.8916 23.1001L16.5223 22.6733C17.7415 21.8481 18.8018 20.6593 19.4496 19.3914L19.7552 18.793H20.47C21.1283 18.793 21.2182 18.7765 21.6067 18.5846C22.0814 18.3503 22.4039 18.0248 22.6165 17.5656C22.8341 17.0957 22.8268 15.9558 22.6031 15.4673C22.5147 15.2743 22.3513 15.03 22.2398 14.9245C22.0436 14.7387 22.0373 14.7125 22.0372 14.0788L22.0371 13.4248L23.1962 13.4468C24.1346 13.4645 24.3783 13.4893 24.4764 13.577C24.5801 13.6698 24.5975 13.815 24.5975 14.5878C24.5975 15.4137 24.6109 15.5101 24.7553 15.7227C24.8605 15.8777 25.0099 15.9855 25.204 16.0467C25.6956 16.2015 25.8729 16.0642 26.9562 14.6899L27.8995 13.4932L30.1062 13.459C32.163 13.4271 32.3342 13.415 32.6278 13.2808C33.0186 13.102 33.4189 12.7599 33.6376 12.4176C34.0095 11.8352 34.0142 11.7572 33.9931 6.54182L33.9736 1.73104L33.7912 1.34672C33.5441 0.825764 33.1743 0.439528 32.7046 0.211534L32.3129 0.0214248L27.2962 0.00562796C22.6095 -0.00907472 22.2558 -0.00196273 21.9196 0.113676ZM32.2564 1.14587C32.4385 1.22759 32.6181 1.38371 32.7408 1.56678L32.9356 1.85769L32.9548 6.56726C32.9672 9.64341 32.9492 11.3674 32.9026 11.5383C32.8086 11.8835 32.6022 12.1331 32.2744 12.2984C32.0258 12.4237 31.8606 12.4332 29.9262 12.4332C27.2402 12.4332 27.4972 12.337 26.3702 13.7649L25.6701 14.6522L25.6296 14.0385C25.5845 13.3543 25.5256 13.1702 25.2628 12.8916C24.905 12.5121 24.6035 12.4364 23.443 12.4347C22.8651 12.4339 22.3172 12.405 22.2255 12.3706C22.0625 12.3093 22.0578 12.285 22.0158 11.2935C21.9733 10.2898 21.7929 9.28193 21.5236 8.54378C21.3692 8.12035 21.3589 2.00047 21.5122 1.71052C21.6377 1.47309 21.9547 1.17651 22.1757 1.08966C22.2842 1.04699 24.1403 1.02059 27.1578 1.01881C31.7378 1.01615 31.9806 1.02216 32.2564 1.14587ZM26.424 2.61443C26.0719 2.72337 25.5751 3.05613 25.3211 3.35305C24.9386 3.80029 24.6813 4.66706 24.8168 5.05138C24.8781 5.22529 25.1217 5.38961 25.318 5.38961C25.5343 5.38961 25.7579 5.11724 25.807 4.79412C25.8812 4.30517 26.0842 3.97316 26.4518 3.73997C26.7461 3.55315 26.8214 3.53571 27.2404 3.55745C27.6316 3.5777 27.7445 3.61367 27.9669 3.78853C28.4927 4.20198 28.6724 4.86387 28.4109 5.42381C28.1685 5.94291 27.7069 6.21023 27.0531 6.21023C26.7355 6.21023 26.637 6.23998 26.4973 6.37811C26.3314 6.54196 26.3274 6.5713 26.3274 7.61211C26.3274 8.65292 26.3314 8.68226 26.4973 8.84611C26.5907 8.93843 26.7478 9.01399 26.8464 9.01399C26.945 9.01399 27.1021 8.93843 27.1955 8.84611C27.3541 8.68937 27.3654 8.63118 27.3654 7.96477V7.25125L27.6248 7.20399C29.1373 6.92888 30.0003 5.24183 29.3371 3.85657C29.1056 3.37302 28.5263 2.84632 28.0199 2.65909C27.5791 2.49606 26.8707 2.47629 26.424 2.61443ZM14.2528 3.46322C17.2451 4.10515 19.6006 6.15819 20.543 8.94561C20.9154 10.0473 20.9987 10.7153 20.9992 12.6042L20.9996 14.2454L20.5936 14.2227L20.1875 14.2L20.1452 13.7998C20.0739 13.1257 19.8894 12.3549 19.7206 12.0256C19.5192 11.6329 18.9475 11.0986 18.5363 10.9188C18.3314 10.8293 17.8832 10.7471 17.2412 10.6814C15.4559 10.4988 13.8779 10.1071 12.3075 9.45679C11.4954 9.12054 11.1157 9.0741 10.7151 9.26203C10.5845 9.32323 10.4138 9.45398 10.3355 9.55266C9.79302 10.2364 9.00232 9.92365 7.61577 8.4769C7.17465 8.01661 6.85337 7.85146 6.39904 7.85146C5.75967 7.85146 5.36124 8.17478 4.6252 9.29109C3.97102 10.2831 3.90868 10.6415 4.35361 10.8523C4.69204 11.0126 4.85881 10.8949 5.28657 10.1937C5.82506 9.31113 6.18612 8.87723 6.38215 8.87723C6.49044 8.87723 6.74398 9.07882 7.17929 9.51122C8.26006 10.5847 9.03027 10.9848 9.87121 10.9095C10.3121 10.87 10.7942 10.6347 11.0228 10.3476C11.0976 10.2535 11.2061 10.1765 11.2638 10.1765C11.3216 10.1765 11.62 10.2827 11.9269 10.4126C13.5245 11.0884 15.5208 11.5718 17.3146 11.7173C18.3818 11.8039 18.7778 12.1513 18.9947 13.1916C19.1787 14.0744 19.2957 15.5483 19.2441 16.3353C19.1027 18.4935 17.8783 20.5134 15.9 21.8523L15.2697 22.2789L14.9343 22.1258C14.6061 21.9762 14.5345 21.9725 11.6767 21.953L8.75474 21.9331L9.19842 21.2908C9.80056 20.4192 9.88553 20.0944 9.68556 19.4288C9.56599 19.0308 9.1987 18.6179 8.78331 18.4143C8.39492 18.224 7.64179 18.233 7.25741 18.4326C6.91821 18.6088 6.72515 18.8192 6.09028 19.7047L5.60861 20.3766L5.41971 20.149C4.74802 19.3395 4.17494 18.0367 4.00285 16.9275C3.87062 16.0755 3.91774 14.705 4.11938 13.5395C4.28344 12.5913 4.28573 12.4445 4.13945 12.2848C3.98569 12.1169 3.5526 12.1178 3.39829 12.2863C3.27256 12.4236 3.10698 13.1046 3.03522 13.7792L2.99031 14.202L2.35932 14.2248C2.01223 14.2374 1.70881 14.24 1.685 14.2306C1.66113 14.2213 1.61878 13.2193 1.59083 12.004C1.54696 10.0969 1.55505 9.73655 1.64978 9.3711C1.95736 8.18449 2.74467 7.38535 4.08886 6.89537C4.24116 6.83984 4.41872 6.65035 4.69495 6.24845C5.81032 4.62569 7.58851 3.56251 9.55976 3.33965C9.85744 3.306 10.895 3.29 11.8655 3.30409C13.2855 3.32467 13.7516 3.35572 14.2528 3.46322ZM26.626 9.83509C26.4312 9.91264 26.3274 10.1085 26.3274 10.3985C26.3274 10.8952 26.9205 11.1273 27.2219 10.7486C27.4687 10.4386 27.4047 10.0303 27.0836 9.86627C26.8624 9.75323 26.8361 9.75145 26.626 9.83509ZM8.65724 14.9684C8.48819 15.0998 8.47491 15.1489 8.47491 15.6417C8.47491 16.0875 8.4974 16.1933 8.6142 16.2978C8.80511 16.4685 9.13995 16.4565 9.32643 16.2723C9.45403 16.1461 9.47825 16.0453 9.47825 15.6395C9.47825 15.1953 9.46275 15.1436 9.28408 14.9917C9.04626 14.7895 8.89458 14.7839 8.65724 14.9684ZM16.4072 14.9684C16.2399 15.0984 16.2248 15.1514 16.2248 15.6105C16.2248 16.1679 16.3251 16.3605 16.6556 16.4378C16.8067 16.4731 16.8857 16.4408 17.0535 16.275C17.241 16.0896 17.2628 16.0245 17.2628 15.6473C17.2628 15.2734 17.2402 15.2042 17.0605 15.0266C16.8214 14.7902 16.6554 14.7755 16.4072 14.9684ZM2.87233 15.8012C2.87448 16.342 2.93662 16.9636 3.04311 17.5108L3.09307 17.7672H2.44422C1.64542 17.7672 1.38483 17.656 1.15745 17.2177C0.974916 16.8659 0.947376 16.2502 1.09822 15.8935C1.19863 15.6561 1.55844 15.3435 1.79752 15.2861C1.87363 15.2678 2.14612 15.2493 2.40298 15.2449L2.87005 15.237L2.87233 15.8012ZM21.323 15.4809C21.6335 15.715 21.7605 16.0165 21.7605 16.5196C21.7605 17.3419 21.3422 17.7672 20.5334 17.7672C20.2949 17.7672 20.0998 17.7568 20.0998 17.7442C20.0998 17.7315 20.1463 17.4161 20.2032 17.0432C20.2601 16.6704 20.3068 16.1072 20.307 15.7916L20.3074 15.2178L20.6928 15.2572C20.9619 15.2846 21.1521 15.3521 21.323 15.4809ZM12.298 17.7317C11.8582 17.8541 11.3776 18.0894 11.2625 18.2388C11.0684 18.4906 11.194 18.8757 11.5052 18.983C11.6628 19.0373 11.7813 19.0173 12.1075 18.8813C12.7602 18.6093 13.1255 18.6026 13.7536 18.8512C14.2887 19.0629 14.4246 19.0665 14.6506 18.8746C14.8147 18.7353 14.8114 18.3026 14.6451 18.1539C14.2071 17.7621 12.9813 17.5416 12.298 17.7317ZM8.52521 19.5129C8.87251 19.8561 8.82179 20.048 8.1254 21.0245C7.50361 21.8966 7.40929 22.1706 7.60353 22.5418C7.82585 22.9667 7.80682 22.9644 11.2081 22.9644C14.6466 22.9644 14.6215 22.9613 14.8149 23.4187C14.9068 23.636 14.9046 23.6826 14.7922 23.9095C14.5977 24.3018 14.4784 24.33 13.0072 24.3314C11.1515 24.3332 11.0736 24.3908 11.0212 25.8024C10.9873 26.7176 10.8912 26.9937 10.4704 27.3847C9.98967 27.8313 9.90768 27.8494 8.18567 27.8875C6.47778 27.9254 6.43654 27.935 6.10959 28.3711C6.04005 28.4638 5.6693 29.7364 5.27412 31.239L4.56376 33.9402L2.84403 33.9585C1.47825 33.973 1.13123 33.959 1.15759 33.8901C1.17586 33.8424 1.71185 31.8205 2.34873 29.397L3.50672 24.9908L5.5509 22.1938C6.67526 20.6554 7.66075 19.3706 7.74095 19.3386C8.04998 19.2152 8.27445 19.265 8.52521 19.5129ZM13.8722 25.5311C13.8722 25.7588 14.0404 26.1488 14.2629 26.4371C14.3628 26.5665 14.4153 26.6944 14.3818 26.7268C14.2165 26.8871 13.4596 27.2833 13.0851 27.4055C12.7106 27.5277 11.7269 27.7055 11.6803 27.6595C11.6706 27.65 11.7432 27.4454 11.8414 27.2049C11.9782 26.8702 12.0287 26.6023 12.0566 26.0627L12.0929 25.3579H12.9826H13.8722V25.5311Z" fill="#9C449C"/>
</svg>
