<svg width="27" height="37" viewBox="0 0 27 37" fill="none" xmlns="http://www.w3.org/2000/svg">
<path d="M8.36364 6L6 3.02765M10.6263 4.89401L9.11111 1M15.2121 4.89401L16.9495 1M17.5354 6L20 3.02765" stroke="#9C449C" stroke-width="1.2" stroke-linecap="round" stroke-linejoin="round"/>
<path d="M19.2856 36V26.1221C19.5945 26.1292 20.3532 26.2624 21.1389 26.7626C22.1786 27.4245 25.8174 28.2785 25.9982 25.1187C26.0705 24.1621 23.9189 15.1408 22.7436 10.2587C22.4301 8.95628 21.2293 7.6152 19.5794 8.10226C17.5544 8.70008 17.6357 10.1519 17.8618 11.4329L19.2856 19.5462H7.89456L9.22803 11.6892C9.45405 10.2587 9.77047 8.42252 7.55553 8.10226C5.47367 7.80124 4.89611 8.73566 4.54956 9.78895L1.06895 24.2646C0.797738 25.4531 1.18196 27.6594 4.88858 26.9762C5.88304 26.5491 6.78709 26.5491 6.78709 26.5491C6.78709 26.5491 6.90763 31.5448 6.78709 36" stroke="#9C449C" stroke-width="1.2" stroke-linejoin="round"/>
<circle cx="13.5" cy="12.5" r="3.9" stroke="#9C449C" stroke-width="1.2"/>
</svg>
