<svg width="30" height="30" viewBox="0 0 30 30" fill="none" xmlns="http://www.w3.org/2000/svg">
<path fill-rule="evenodd" clip-rule="evenodd" d="M13.3215 0.055449C13.0041 0.152427 12.6528 0.408221 12.4817 0.666954C12.3566 0.856033 9.86781 7.82356 9.33488 9.47669C9.02125 10.4495 8.94131 11.1059 8.72587 14.4758C8.54819 17.2546 8.50075 17.7657 8.40713 17.9087C8.31938 18.0426 5.88 21.0528 5.68162 21.2719C5.65225 21.3043 5.45888 21.1783 5.23069 20.9778C4.76956 20.5728 4.56737 20.4653 4.364 20.5172C4.28412 20.5375 3.26956 21.5057 2.10938 22.6688L0 24.7833V27.2382V29.6931L0.153437 29.8465L0.306813 30H5.26094H10.215L11.3575 28.857C12.8323 27.3816 12.8128 27.5463 11.6341 26.52L11.4243 26.3374L13.0041 24.34C13.8729 23.2413 14.6644 22.2154 14.7628 22.0601C14.8612 21.9049 14.9661 21.7778 14.9959 21.7778C15.0256 21.7778 15.1447 21.9185 15.2607 22.0905C15.3766 22.2624 16.171 23.2873 17.0261 24.368L18.5807 26.3329L18.3684 26.5177C17.5409 27.2384 17.5 27.2849 17.5 27.502C17.5 27.6937 17.6099 27.824 18.6425 28.857L19.785 30H24.7391H29.6932L29.8466 29.8465L30 29.6931V27.2382V24.7833L27.8942 22.6733C26.4135 21.1896 25.7355 20.5516 25.6104 20.5241C25.4039 20.4787 25.2635 20.5577 24.7323 21.0181C24.4224 21.2866 24.3587 21.3186 24.2869 21.242C24.2409 21.1928 23.6093 20.4248 22.8834 19.5354C21.9701 18.4165 21.5462 17.8482 21.5073 17.6909C21.4764 17.5658 21.3614 16.0708 21.2518 14.3685C21.0523 11.2722 21.0219 10.9659 20.8334 10.148C20.6545 9.37183 17.6881 0.912869 17.5115 0.67527C17.3162 0.412473 17.2244 0.333502 16.9375 0.181126C16.4139 -0.0968646 15.7632 -0.0334006 15.2693 0.343757L14.9859 0.560159L14.8211 0.40597C14.4527 0.0615766 13.8004 -0.0909246 13.3215 0.055449ZM14.0588 1.07981C14.3936 1.25301 14.3929 1.29046 13.9944 4.46504C13.792 6.07752 13.6261 7.41796 13.6257 7.44372C13.6253 7.46948 13.5879 7.49061 13.5426 7.49061C13.4973 7.49061 13.3186 7.53269 13.1455 7.58409C12.7377 7.70526 12.302 8.09093 12.0953 8.51366C11.9412 8.82848 11.9226 8.98436 11.7101 11.7324C11.5024 14.4172 11.4939 14.6312 11.5879 14.7748C11.7693 15.0517 12.2271 15.06 12.4005 14.7895C12.4648 14.6891 12.5512 13.8652 12.7076 11.8591C12.9425 8.84499 12.9438 8.83811 13.3187 8.64416C13.6946 8.4497 14.1152 8.56362 14.3594 8.92609L14.5038 9.14043L14.4856 14.7401L14.4674 20.3397L14.3223 20.7288C14.2425 20.9428 14.071 21.2804 13.9412 21.4791C13.5945 22.0101 10.7122 25.6374 10.6483 25.6232C10.5586 25.6032 6.4375 22.0444 6.4375 21.9868C6.4375 21.9576 7.00781 21.2375 7.70481 20.3864C9.28562 18.4564 9.28919 18.4516 9.40831 18.1157C9.47881 17.917 9.56763 16.919 9.72225 14.5873C9.84087 12.7991 9.98088 11.1039 10.0334 10.8203C10.1646 10.1124 10.2008 10.0019 11.8187 5.36698C13.3287 1.04105 13.3519 0.9879 13.7253 0.9879C13.8111 0.9879 13.9611 1.02923 14.0588 1.07981ZM16.589 1.12858C16.7147 1.24013 17.0594 2.16252 18.2534 5.58263C19.0817 7.95499 19.8117 10.1215 19.8757 10.3971C20.0339 11.0782 20.0411 11.1551 20.2801 14.7124C20.4338 17.001 20.5174 17.9163 20.5921 18.1283C20.6636 18.3308 21.1256 18.9473 22.1284 20.1781C22.9171 21.1461 23.5625 21.957 23.5625 21.9798C23.5625 22.0027 23.3759 22.1957 23.1478 22.4088C22.7743 22.7575 22.7373 22.8138 22.7751 22.9747C22.8283 23.2004 23.0863 23.4348 23.2816 23.4348C23.3833 23.4348 23.7647 23.1516 24.4722 22.5508L25.5133 21.6669L27.2566 23.4101L29 25.1534V27.0765V28.9996H24.6084H20.2168L19.4786 28.2591L18.7404 27.5187L20.3093 26.1574C21.1723 25.4086 21.9075 24.7413 21.9433 24.6745C22.0328 24.5071 21.9552 24.2045 21.7936 24.0913C21.5046 23.8889 21.3068 23.9637 20.6779 24.5133C20.3533 24.797 19.9176 25.1759 19.7097 25.3552L19.3319 25.6813L17.7611 23.689C16.0683 21.542 15.8896 21.2876 15.6734 20.7149L15.5317 20.3397L15.5139 14.7571C15.4938 8.43351 15.4636 8.83323 15.9791 8.60501C16.3206 8.45395 16.6658 8.52917 16.8979 8.80516C17.0916 9.03551 17.0815 8.95604 17.3166 12.0863C17.4557 13.9395 17.534 14.6886 17.5991 14.7895C17.7734 15.06 18.2307 15.0517 18.4121 14.7748C18.5061 14.6312 18.4976 14.4179 18.2908 11.7431C18.0486 8.61277 18.0404 8.56744 17.624 8.09305C17.3946 7.83169 16.9584 7.58621 16.6059 7.52006C16.4789 7.49618 16.3747 7.45872 16.3743 7.43678C16.3739 7.41477 16.208 6.07752 16.0056 4.46504C15.724 2.22179 15.6523 1.49086 15.7004 1.35287C15.8219 1.00403 16.3099 0.880856 16.589 1.12858ZM15.2152 6.26935L15.3937 7.73672L15.2437 7.8617C15.1612 7.93042 15.0516 7.98663 15 7.98663C14.9484 7.98663 14.8388 7.93042 14.7563 7.8617L14.6062 7.73672L14.7848 6.26935C14.883 5.46233 14.9799 4.80199 15 4.80199C15.0201 4.80199 15.117 5.46233 15.2152 6.26935ZM7.93863 24.6608L11.2591 27.5192L10.5212 28.2594L9.78319 28.9996H5.39162H1V27.1086V25.2176L2.73438 23.4815C3.68831 22.5266 4.50238 21.7582 4.54344 21.7739C4.5845 21.7896 6.11238 23.0888 7.93863 24.6608Z" fill="#9C449C"/>
</svg>
