<svg width="29" height="36" viewBox="0 0 29 36" fill="none" xmlns="http://www.w3.org/2000/svg">
<path fill-rule="evenodd" clip-rule="evenodd" d="M13.1705 0.0937637C12.5573 0.23175 12.0423 0.533745 11.6162 1.00512C11.052 1.62908 10.8916 2.09789 10.8897 3.12787C10.8882 3.92976 10.8979 3.98067 11.158 4.5274C11.3064 4.83945 11.559 5.23699 11.7193 5.41084C12.3537 6.09926 15.8872 9.29623 16.0627 9.34079C16.1655 9.36689 16.323 9.35418 16.4126 9.31265C16.5981 9.22664 20.2287 5.86769 20.7046 5.34192C22.0902 3.81069 21.7008 1.23563 19.9521 0.365651C18.7724 -0.221168 17.5448 -0.0240238 16.569 0.90897L16.1762 1.28457L15.8611 0.939079C15.4991 0.542143 14.8134 0.175163 14.2267 0.0644114C13.745 -0.0264445 13.6985 -0.0251584 13.1705 0.0937637ZM14.5311 1.43376C14.6827 1.51137 14.952 1.75232 15.1298 1.96921C16.1237 3.18203 16.288 3.21305 16.9555 2.3141C17.5623 1.49715 17.9385 1.25938 18.6333 1.25378C19.6765 1.24539 20.4606 2.21031 20.3283 3.33969C20.2371 4.11851 20.0352 4.38305 18.3158 5.97625C17.4409 6.78699 16.603 7.5584 16.4538 7.69056L16.1824 7.93075L14.3211 6.20373C12.1404 4.18054 12.0854 4.10391 12.0854 3.09004C12.0854 2.53031 12.1112 2.40291 12.2839 2.10659C12.7545 1.2994 13.7103 1.01322 14.5311 1.43376ZM7.03425 9.56351C6.30875 9.79681 5.67784 10.4661 5.48874 11.2029C5.2822 12.0079 5.41136 12.5938 5.99453 13.4969C6.20458 13.8222 6.39271 14.1312 6.41262 14.1836C6.43252 14.236 6.07542 14.907 5.61902 15.6747C5.16269 16.4424 4.78928 17.1442 4.78928 17.2342C4.78928 17.5289 4.93715 17.6877 5.45858 17.9532L5.97245 18.2148L5.9982 19.2955C6.02282 20.3269 6.03404 20.3945 6.24469 20.7789C6.49995 21.2447 6.89027 21.5839 7.39203 21.7759C7.74381 21.9105 7.74523 21.9125 7.76776 22.2972L7.79043 22.6834H7.18534C6.69586 22.6834 6.51282 22.6489 6.22733 22.5028C4.76092 21.7521 3.1589 22.02 2.09269 23.1942C1.09113 24.2972 0.921711 26.0021 1.69121 27.2345C1.78999 27.3927 1.87081 27.5743 1.87081 27.6382C1.87081 27.7021 1.44988 29.4554 0.935406 31.5345C0.420933 33.6136 0 35.3849 0 35.4706C0 35.5564 0.083139 35.7106 0.184761 35.8133L0.369448 36L13.1495 35.98L25.9294 35.9601L26.4309 35.7199C27.0667 35.4154 27.5611 34.917 27.853 34.2863C28.0411 33.8801 28.0876 33.6694 28.1155 33.0985C28.1353 32.6914 28.3345 31.4514 28.5974 30.0985C29.0872 27.579 29.0996 27.3527 28.7987 26.4367C28.3969 25.2139 27.3139 24.2425 26.0567 23.9774C25.8324 23.9302 24.8963 23.8938 23.9014 23.8938H22.1425L22.1652 23.5068L22.1878 23.1197L22.5748 22.9742C23.0232 22.8055 23.4931 22.3752 23.7358 21.9111C23.8843 21.6272 23.909 21.4511 23.9331 20.5059L23.9605 19.4252L24.4744 19.1636C24.9844 18.904 25.1437 18.7382 25.1437 18.4672C25.1437 18.3897 24.908 17.7338 24.6199 17.0097C24.3318 16.2856 24.0961 15.6622 24.0961 15.6244C24.0961 15.5865 24.2224 15.2971 24.3767 14.9812C24.6473 14.4273 24.6573 14.3783 24.6573 13.6089C24.6573 12.9016 24.6345 12.762 24.4567 12.3785C24.2203 11.8686 23.6868 11.2668 23.2324 10.9977C22.5648 10.6021 22.2243 10.566 19.4714 10.5985C17.3578 10.6234 16.8746 10.6496 16.4866 10.7607L16.0237 10.8931L15.6454 10.5908C15.4373 10.4246 15.09 10.2018 14.8736 10.0959C14.1248 9.72918 13.7296 9.67585 10.8881 9.55798C7.66344 9.42423 7.46633 9.42454 7.03425 9.56351ZM10.8502 10.7696C13.8058 10.8946 14.0084 10.9284 14.7295 11.4151C15.4373 11.8929 15.917 12.6105 16.0975 13.4613C16.335 14.5806 15.9116 16.5019 15.1573 17.7284L14.9711 18.031L14.9688 17.5287C14.9671 17.1618 14.9312 16.9851 14.8355 16.873C14.7635 16.7886 13.8676 16.0188 12.8445 15.1625L10.9845 13.6054H9.24488H7.50517L7.1682 13.0931C6.70611 12.3906 6.58526 12.1379 6.58526 11.8742C6.58526 11.4022 6.87299 10.952 7.29616 10.7619C7.58023 10.6343 7.65558 10.6344 10.8502 10.7696ZM22.2918 11.9003C22.765 12.0691 23.0994 12.3684 23.317 12.8181C23.4849 13.1651 23.5101 13.3024 23.4857 13.7378C23.4653 14.1034 23.4077 14.3306 23.284 14.5327L23.111 14.8158H21.3294C19.7433 14.8158 19.5304 14.8303 19.3886 14.9482C19.2737 15.0438 19.1233 15.4598 18.8484 16.4423C18.6388 17.1912 18.3655 17.9993 18.2411 18.238C17.9481 18.7999 17.4016 19.3115 16.7993 19.5875C16.5354 19.7086 16.2844 19.8736 16.2416 19.9544C16.1965 20.0397 16.1638 20.6438 16.1638 21.3924V22.6834H15.5652H14.9665V21.3131V19.9428L15.3294 19.5164C16.2003 18.4934 16.7848 17.3854 17.1106 16.1397C17.2766 15.5051 17.3096 15.2126 17.3156 14.3241C17.3223 13.3428 17.3076 13.2233 17.1149 12.6976C16.8363 11.9376 16.836 11.9172 17.0992 11.8581C17.2227 11.8304 18.3718 11.8037 19.6528 11.7987C21.5217 11.7916 22.0432 11.8117 22.2918 11.9003ZM12.1653 16.1586L13.7655 17.5014L13.7674 20.0924L13.7692 22.6834H11.3745H8.97989V21.9732C8.97989 21.0934 8.92923 21.0204 8.12164 20.7368C7.22889 20.4233 7.18392 20.3326 7.18392 18.8469C7.18392 18.1871 7.15024 17.617 7.10639 17.5342C7.06374 17.4536 6.86169 17.3021 6.65739 17.1974C6.4531 17.0927 6.28593 16.9837 6.28593 16.955C6.28593 16.9262 6.56303 16.4332 6.9018 15.8593L7.51759 14.8158H9.04133H10.5651L12.1653 16.1586ZM7.96629 15.985C7.86527 16.0871 7.78258 16.2527 7.78258 16.353C7.78258 16.7615 8.42434 17.2333 8.97989 17.2333C9.53545 17.2333 10.1772 16.7615 10.1772 16.353C10.1772 16.1105 9.85962 15.7993 9.61223 15.7993C9.5035 15.7993 9.31679 15.8577 9.19721 15.9291C8.99187 16.0516 8.96792 16.0516 8.76258 15.9291C8.45854 15.7475 8.18196 15.7669 7.96629 15.985ZM23.365 17.0874L23.7841 18.1487L23.3442 18.3732C23.1023 18.4967 22.8694 18.6636 22.8267 18.7443C22.7827 18.8275 22.7491 19.3962 22.7491 20.0573C22.7491 21.543 22.7041 21.6337 21.8113 21.9472C21.0106 22.2285 20.9531 22.3087 20.9531 23.1452V23.8172L20.62 23.5602C19.8919 22.9983 18.9266 22.6872 17.9037 22.6847L17.3611 22.6834V21.6809V20.6785L17.7166 20.4895C18.2085 20.228 18.9978 19.4074 19.2811 18.8631C19.4986 18.4452 19.6106 18.1134 20.0533 16.5747L20.2111 16.0262H21.5785H22.946L23.365 17.0874ZM20.5381 16.8171C20.2009 17.158 20.3149 17.5721 20.8301 17.8773C21.8138 18.4601 23.2953 17.555 22.5654 16.8171C22.3497 16.5991 22.0731 16.5796 21.7691 16.7612C21.5637 16.8838 21.5398 16.8838 21.3344 16.7612C21.0304 16.5796 20.7538 16.5991 20.5381 16.8171ZM9.33774 25.4337L13.4746 27.5251L14.6134 27.5283L15.7522 27.5315L16.3358 28.3259C16.6567 28.7628 16.935 29.1617 16.9542 29.2122C16.9734 29.2628 16.7263 29.5683 16.4051 29.8911L15.8212 30.478L13.5418 29.9142C12.288 29.6042 9.61829 28.9555 7.60896 28.4728C5.59964 27.9902 3.82334 27.5417 3.6617 27.4763C3.22086 27.298 2.6463 26.6216 2.49828 26.1068C2.18668 25.0231 2.74403 23.8519 3.76624 23.4423C4.06198 23.3238 4.27667 23.2938 4.67703 23.3148C5.1936 23.3421 5.25825 23.3714 9.33774 25.4337ZM19.1571 24.1014C20.2684 24.5595 20.9626 25.4953 21.22 26.8823L21.2722 27.1634L21.0565 27.0271C20.9379 26.9522 20.2321 26.4889 19.488 25.9975C18.5775 25.3963 18.0669 25.1043 17.9261 25.1043C17.7654 25.1043 17.5722 25.2472 17.0911 25.7219L16.4651 26.3396L15.1054 26.3214L13.7457 26.3032L11.3815 25.1012L9.01731 23.8991L13.8814 23.9154C18.7308 23.9316 18.7468 23.9322 19.1571 24.1014ZM26.341 25.3394C27.1067 25.7064 27.6168 26.3946 27.7734 27.2719C27.8446 27.6712 27.8227 27.8641 27.5479 29.2564C27.3805 30.1047 27.2303 30.8121 27.2142 30.8284C27.198 30.8447 26.9641 30.7124 26.6944 30.5343C26.4247 30.3563 25.4294 29.734 24.4826 29.1515L22.7613 28.0924L22.4821 26.9577C22.3287 26.3336 22.1405 25.6592 22.0638 25.4591L21.9246 25.0953L23.927 25.1186C25.9072 25.1419 25.934 25.1443 26.341 25.3394ZM18.7671 26.9826C19.1257 27.2251 20.9974 28.4049 22.9266 29.6044C26.0853 31.5684 26.4551 31.8189 26.6463 32.1236C27.2085 33.0198 26.9127 34.0914 25.9684 34.5794C25.4953 34.8239 25.1129 34.844 24.2613 34.6689C23.2545 34.462 22.7974 34.1712 20.2634 32.1256C18.9759 31.0861 17.9092 30.2224 17.8932 30.2063C17.8771 30.1901 17.9866 30.0397 18.1364 29.872C18.548 29.4115 18.5168 29.2726 17.7775 28.2687L17.1462 27.4116L17.5694 26.9766C17.8021 26.7373 18.0201 26.5416 18.0539 26.5416C18.0876 26.5416 18.4086 26.74 18.7671 26.9826ZM3.27631 28.6265C3.42935 28.6914 5.60869 29.2382 8.11932 29.8416C10.63 30.445 13.4154 31.1238 14.3092 31.3501C15.203 31.5764 16.0035 31.7615 16.0882 31.7615C16.1728 31.7615 16.3881 31.6253 16.5667 31.4589C16.7453 31.2924 16.9492 31.1563 17.0197 31.1563C17.0902 31.1563 17.3306 31.3005 17.5538 31.4768L17.9598 31.7973V33.2924V34.7875H12.2725H6.58526V33.1576C6.58526 31.5279 6.58526 31.5276 6.40154 31.342C6.28578 31.2249 6.13237 31.1563 5.9866 31.1563C5.84082 31.1563 5.68742 31.2249 5.57165 31.342C5.38794 31.5276 5.38794 31.5279 5.38794 33.1576V34.7875H3.37644H1.36494L2.07046 31.9317C2.92894 28.4569 2.91555 28.5085 2.96119 28.5085C2.98147 28.5085 3.12328 28.5616 3.27631 28.6265ZM20.4293 33.804L21.6451 34.7875H20.4011H19.1571V33.804C19.1571 33.2631 19.1698 32.8206 19.1852 32.8206C19.2007 32.8206 19.7606 33.2631 20.4293 33.804Z" fill="#9C449C"/>
</svg>
