<svg width="24" height="35" viewBox="0 0 24 35" fill="none" xmlns="http://www.w3.org/2000/svg">
<path fill-rule="evenodd" clip-rule="evenodd" d="M6.30437 0.10421C4.64053 0.434305 3.04142 1.4661 2.13352 2.7953C1.54147 3.66218 1.27448 4.53692 1.26526 5.63998C1.25143 7.29391 1.83024 8.50688 3.20503 9.70489C4.3751 10.7246 5.67868 11.2541 7.28524 11.3622C8.66121 11.4547 10.4123 11.0043 11.4903 10.2803C11.919 9.99243 11.9216 9.99191 12.1145 10.162C12.3552 10.3742 12.2811 10.6311 11.9141 10.8571C11.4895 11.1187 9.63933 11.7191 8.96165 11.8153C8.61873 11.864 8.32026 11.9197 8.29819 11.9391C8.27621 11.9586 8.39107 12.709 8.55351 13.6069L8.84894 15.2393L8.49985 15.689C8.15312 16.1358 7.8975 16.376 7.83786 16.311C7.8207 16.2923 7.62246 16.054 7.39716 15.7814L6.98755 15.2859L7.18578 13.7924C7.29476 12.971 7.39481 12.2025 7.40814 12.0847C7.43139 11.8792 7.39912 11.8664 6.60697 11.7667C5.56558 11.6357 4.57049 11.3555 3.98609 11.0287L3.53214 10.7749L3.2423 11.0181C1.97433 12.0813 1.03828 13.8929 0.480268 16.3635C-0.136012 19.0924 -0.147095 19.4828 0.377571 19.9794C1.11577 20.678 2.45456 20.4618 2.80522 19.5872C2.88683 19.3838 3.06643 18.6531 3.20444 17.9634C3.34244 17.2737 3.55568 16.3981 3.67829 16.0176L3.90125 15.3257L3.9752 17.4878C4.01581 18.6769 4.08202 22.7436 4.12233 26.5249L4.19551 33.4001L4.4214 33.7475C4.7751 34.2914 5.23925 34.5246 5.96401 34.5229C6.47426 34.5217 6.62571 34.4834 6.92929 34.2793C7.67612 33.7771 7.62296 34.2297 7.67759 27.9125C7.70957 24.2201 7.76087 22.2442 7.82472 22.2442C7.88858 22.2442 7.93987 24.2211 7.97185 27.9154L8.02089 33.5866L8.30456 33.9144C9.08779 34.8197 10.7107 34.7198 11.267 33.7321C11.4445 33.4169 11.4564 33.0708 11.503 26.8708C11.5442 21.3882 11.575 20.3 11.6951 20.0822C11.81 19.874 11.8454 19.2219 11.8744 16.7854L11.9105 13.748L12.5796 13.5105C13.3965 13.2206 14.2125 12.6702 14.6101 12.141L14.9072 11.7456L18.4282 13.6653L21.9492 15.5852H22.5568C23.1171 15.5852 23.1917 15.5619 23.5151 15.2855C24.1744 14.7221 24.1594 13.859 23.4816 13.3607C23.3342 13.2524 21.4887 12.2298 19.3805 11.0882C15.6068 9.04487 15.5464 9.00777 15.487 8.69506C15.3787 8.1255 14.6672 7.58578 14.0247 7.58578H13.7937L13.98 6.9588C14.2419 6.07696 14.1699 4.77587 13.8077 3.84828C13.1482 2.15872 11.5959 0.804526 9.70946 0.272933C8.69867 -0.0118461 7.25101 -0.0835381 6.30437 0.10421ZM9.0052 1.32038C10.7168 1.71343 12.181 3.00631 12.6279 4.51937C12.9351 5.5592 12.7684 6.87439 12.2125 7.79549C11.8079 8.46606 10.6917 9.4112 9.93359 9.72504C6.95822 10.957 3.47329 9.50027 2.72813 6.71293C2.09537 4.34623 3.78835 1.88864 6.4515 1.30793C7.1438 1.15693 8.31849 1.16273 9.0052 1.32038ZM6.08388 4.27791C4.62719 5.59587 5.64396 7.76912 7.72918 7.79471C8.85738 7.80855 9.7895 7.14655 10.0419 6.15237C10.175 5.62821 10.0754 5.06869 9.77753 4.6656C9.6511 4.49455 9.6049 4.48313 9.4153 4.57601C9.29279 4.63603 8.83423 4.68376 8.3642 4.68558C7.43228 4.68904 6.82316 4.49818 6.64895 4.14819C6.59569 4.04122 6.52742 3.95361 6.49721 3.95361C6.467 3.95361 6.28103 4.09959 6.08388 4.27791Z" fill="#9C449C"/>
</svg>
