<svg width="35" height="33" viewBox="0 0 35 33" fill="none" xmlns="http://www.w3.org/2000/svg">
<path d="M34.4531 27.5613H26.25C25.948 27.5613 25.7031 27.2907 25.7031 26.957C25.7031 26.6233 25.948 26.3527 26.25 26.3527H34.4531C34.7551 26.3527 35 26.6233 35 26.957C35 27.2907 34.7551 27.5613 34.4531 27.5613Z" fill="#9C449C"/>
<path d="M3.82812 27.5613H0.546875C0.244875 27.5613 0 27.2907 0 26.957C0 26.6233 0.244875 26.3527 0.546875 26.3527H3.82812C4.13012 26.3527 4.375 26.6233 4.375 26.957C4.375 27.2907 4.13012 27.5613 3.82812 27.5613Z" fill="#9C449C"/>
<path d="M13.6719 27.5613H10.1172C9.81519 27.5613 9.57031 27.2907 9.57031 26.957C9.57031 26.6233 9.81519 26.3527 10.1172 26.3527H13.6719C13.9739 26.3527 14.2187 26.6233 14.2187 26.957C14.2187 27.2907 13.9739 27.5613 13.6719 27.5613Z" fill="#9C449C"/>
<path d="M14.2188 10.0367C14.0115 10.0367 13.822 9.90748 13.7293 9.70246L13.3614 8.88856C12.7107 8.93927 12.0669 8.71563 11.5596 8.26268C11.0523 7.80972 10.719 7.1612 10.627 6.44792L10.399 4.68469V4.68442C10.3745 4.49611 10.4319 4.30592 10.5537 4.17157L11.6475 2.96298C11.7705 2.82351 11.9478 2.76038 12.1216 2.79356C12.2952 2.82459 12.4449 2.94598 12.5235 3.11999L12.8252 3.78472L12.9407 3.72429C13.4029 3.47043 13.9458 3.47043 14.408 3.72429C14.6807 3.87429 14.9097 4.10548 15.0696 4.39199C15.2295 4.67848 15.3138 5.00842 15.3126 5.34512V5.43333L16.1038 5.87036V5.8701C16.1888 5.91758 16.2613 5.98825 16.3145 6.07567L17.4082 7.88856C17.4998 8.04017 17.5245 8.22928 17.4756 8.40329C17.4266 8.57729 17.3094 8.71785 17.156 8.78528L14.4217 9.99388C14.3572 10.0222 14.2884 10.0368 14.2188 10.0368L14.2188 10.0367ZM13.6719 7.61952C13.8792 7.61952 14.0686 7.74874 14.1614 7.95377L14.4829 8.66435L16.1235 7.93919L15.4842 6.87922L14.5206 6.3475C14.3355 6.24498 14.2186 6.03564 14.2188 5.8066V5.34501C14.2188 5.13539 14.1207 4.94089 13.9593 4.83082C13.7979 4.72075 13.5965 4.71077 13.4268 4.80465L12.8226 5.1389C12.6929 5.21067 12.5425 5.22226 12.4048 5.17155C12.2671 5.12083 12.1536 5.01157 12.0887 4.86805L11.8814 4.40943L11.5176 4.81194L11.7068 6.27544H11.7071C11.7664 6.73622 11.9998 7.14735 12.3491 7.40689C12.6985 7.66668 13.1311 7.75032 13.5396 7.63755C13.5828 7.62568 13.6272 7.61947 13.6719 7.61947L13.6719 7.61952Z" fill="#9C449C"/>
<path d="M24.6094 25.7485C24.5549 25.7482 24.5007 25.7393 24.4485 25.7218L17.3391 23.3046C17.1291 23.2331 16.9783 23.0291 16.9563 22.7874L16.6052 18.9127C16.5098 17.8637 16.2312 16.8453 15.7849 15.9136L14.846 17.1583C14.2761 17.9144 13.5913 18.5552 12.8225 19.0515C12.5618 19.2204 12.2266 19.1238 12.0738 18.8357C11.9209 18.5473 12.0083 18.1769 12.2691 18.0081C12.9285 17.5826 13.5154 17.0334 14.004 16.3848L15.4373 14.4837C15.546 14.3332 15.7152 14.252 15.889 14.2669C16.0611 14.2771 16.2188 14.3766 16.3145 14.5353C17.0809 15.8087 17.5545 17.2697 17.6937 18.7913L18.0081 22.2665L24.1129 24.3429L24.3765 20.2674C24.5421 17.7037 23.9022 15.1552 22.5645 13.0524C21.2269 10.9498 19.2735 9.42127 17.0343 8.72553L16.8922 8.68129L14.65 9.8742L13.424 13.2612L13.4237 13.2615C12.9952 14.4486 12.2572 15.4685 11.3036 16.1916C10.4159 16.8673 9.33802 17.1679 8.26671 17.0376L6.0934 16.7675L6.40614 19.7485L8.52627 19.2368H8.52651C8.81777 19.1747 9.10049 19.3806 9.16395 19.7008C9.22742 20.021 9.04847 20.3385 8.76063 20.4168L6.04969 21.0718V21.072C5.89832 21.1093 5.74013 21.0739 5.61366 20.9746C5.48744 20.8754 5.40516 20.7216 5.38734 20.5516L4.92567 16.1519H4.92591C4.90663 15.9687 4.964 15.7861 5.08168 15.6558C5.19959 15.5257 5.36463 15.4618 5.53016 15.4815L8.3871 15.8368V15.837C9.18985 15.9363 9.99816 15.713 10.6642 15.2079C11.4467 14.6196 12.0532 13.787 12.4059 12.8166L13.7108 9.21137C13.7616 9.07109 13.8583 8.9567 13.9816 8.89115L16.6066 7.49643C16.726 7.43411 16.8617 7.42062 16.9894 7.45893L17.3307 7.56523C19.8116 8.33652 21.976 10.0299 23.4581 12.36C24.9406 14.6897 25.65 17.5132 25.467 20.3539L25.1547 25.1883C25.1339 25.504 24.8959 25.7484 24.6095 25.7484L24.6094 25.7485Z" fill="#9C449C"/>
<path d="M18.6925 30.7209C17.671 30.7188 16.6686 30.4128 15.7911 29.835C14.9134 29.2569 14.1928 28.4284 13.7052 27.4365L12.0492 24.0386L9.24207 30.2489C9.14905 30.4547 8.95813 30.5845 8.74988 30.5831H4.37488C4.18738 30.5826 4.01331 30.476 3.9137 30.3007C3.81384 30.1256 3.80213 29.906 3.88269 29.719L8.33263 19.3949V19.3946C8.69591 18.5144 9.39782 17.8612 10.2448 17.6152C11.0914 17.3691 11.9935 17.5566 12.7016 18.1256L17.7487 22.1816L24.7712 24.5691V24.5694C25.03 24.6557 25.1926 24.9384 25.154 25.2341C24.9763 26.5803 24.4072 27.8261 23.5324 28.7838C22.6577 29.7412 21.5249 30.3585 20.3049 30.5422L19.4299 30.6709C19.1855 30.7054 18.9392 30.7221 18.6926 30.721L18.6925 30.7209ZM12.0313 22.1226C12.2327 22.1226 12.4177 22.2446 12.5129 22.4404L14.6682 26.8634C15.1098 27.7621 15.7871 28.4918 16.6111 28.9568C17.4353 29.4217 18.3674 29.6002 19.2849 29.4683L20.1572 29.3396C21.0627 29.2034 21.9106 28.771 22.5917 28.0976C23.2729 27.4243 23.7558 26.541 23.9787 25.5617L17.3393 23.3045C17.2817 23.2848 17.2275 23.2548 17.1787 23.2157L12.0578 19.1011C11.6139 18.7439 11.048 18.6268 10.5175 18.7828C9.98697 18.9384 9.54823 19.3501 9.32342 19.9037L5.24142 29.3742H8.4133L11.5432 22.4569C11.6342 22.2554 11.8191 22.1267 12.0227 22.1227L12.0313 22.1226Z" fill="#9C449C"/>
<path d="M8.13501 33H7.25463C7.07519 33 6.89795 32.9539 6.7373 32.8659L6.12475 32.5268L5.85668 32.823C5.7539 32.9366 5.61401 33.0005 5.4685 33H1.64038C1.33838 33 1.09351 32.7294 1.09351 32.3957C1.09473 31.7453 1.29932 31.1154 1.67236 30.6122C2.04566 30.1094 2.56467 29.7641 3.14161 29.6354L4.26536 29.3863C4.30125 29.3783 4.33812 29.3742 4.37474 29.3742H8.74973C8.89475 29.3742 9.03391 29.4379 9.13645 29.5512C9.23899 29.6645 9.29661 29.8183 9.29661 29.9785V31.7164C9.29612 32.0568 9.17356 32.383 8.95603 32.6237C8.73826 32.864 8.44309 32.9995 8.13497 33L8.13501 33ZM6.01538 31.1871C6.1001 31.186 6.18384 31.2065 6.25977 31.2475L7.25465 31.7914H8.13502C8.17237 31.7911 8.20264 31.7577 8.20289 31.7164V30.5828H4.42945L3.35695 30.8202C2.87869 30.9273 2.48052 31.2918 2.29664 31.7914H5.24439L5.63111 31.3641H5.63086C5.73291 31.2513 5.8711 31.1876 6.01538 31.1871L6.01538 31.1871Z" fill="#9C449C"/>
<path d="M16.4063 7.61953C16.2168 7.61953 16.0408 7.51108 15.9414 7.33276C15.8418 7.15471 15.8328 6.93241 15.9172 6.74519L16.0518 6.44844C16.4402 5.58868 16.5034 4.59349 16.2283 3.68214C15.9529 2.77058 15.3616 2.01711 14.5838 1.58706C13.806 1.1573 12.9058 1.08608 12.0806 1.38931L10.813 1.85656L10.8128 1.85629C10.552 1.95476 10.3404 2.1695 10.2295 2.44818C10.1187 2.72713 10.1187 3.04438 10.2295 3.32334C10.3404 3.60202 10.552 3.81675 10.8128 3.91522L11.1104 4.0253V4.02503C11.3973 4.1305 11.5525 4.47312 11.4571 4.7901C11.3616 5.10736 11.0516 5.27866 10.7647 5.17318L10.4671 5.06393H10.4673C9.9146 4.85755 9.4659 4.40406 9.23077 3.81431C8.99567 3.22431 8.99567 2.55254 9.23077 1.96261C9.46588 1.37287 9.91458 0.919416 10.4673 0.712988L11.7344 0.246547C12.8343 -0.15731 14.034 -0.0620802 15.0706 0.510655C16.107 1.08366 16.8955 2.08749 17.2627 3.3023C17.6301 4.51683 17.5462 5.84277 17.0298 6.98934L16.8958 7.28556V7.28529C16.803 7.49032 16.6135 7.61954 16.4063 7.61954L16.4063 7.61953Z" fill="#9C449C"/>
<path d="M4.08061 20.6682C3.43655 20.6688 2.83649 20.3073 2.48761 19.7089C2.13898 19.1105 2.08942 18.3573 2.35626 17.7096C2.62311 17.0616 3.16976 16.6084 3.8072 16.5058L5.46857 16.2406C5.61531 16.2161 5.76447 16.2598 5.88093 16.3615C5.99787 16.461 6.07355 16.6089 6.0904 16.7713L6.39827 19.7124C6.43098 20.0342 6.2281 20.3275 5.93831 20.3771L4.36699 20.6447H4.36724C4.27227 20.6606 4.17656 20.6685 4.08062 20.6682L4.08061 20.6682ZM5.06986 17.5259L3.96636 17.7023C3.52959 17.7746 3.2283 18.2241 3.29374 18.7067C3.35893 19.1893 3.76591 19.5222 4.20242 19.4499L5.25199 19.2686L5.06986 17.5259Z" fill="#9C449C"/>
</svg>
