<svg width="26" height="23" viewBox="0 0 26 23" fill="none" xmlns="http://www.w3.org/2000/svg">
<path d="M22.2076 22.9792H16.541C16.3531 22.9792 16.1729 22.9046 16.0401 22.7717C15.9073 22.6389 15.8326 22.4587 15.8326 22.2709V16.6042C15.8326 16.4163 15.758 16.2362 15.6252 16.1033C15.4923 15.9705 15.3122 15.8959 15.1243 15.8959H10.8743C10.6864 15.8959 10.5063 15.9705 10.3734 16.1033C10.2406 16.2362 10.166 16.4163 10.166 16.6042V22.2709C10.166 22.4587 10.0913 22.6389 9.95851 22.7717C9.82567 22.9046 9.6455 22.9792 9.45764 22.9792H3.79097C3.60311 22.9792 3.42295 22.9046 3.29011 22.7717C3.15727 22.6389 3.08264 22.4587 3.08264 22.2709V14.0808C3.16144 14.0272 3.25308 13.9971 3.3248 13.9325L12.9993 5.40369L22.6831 13.9435C22.7513 14.0046 22.8407 14.0321 22.916 14.0852V22.2709C22.916 22.4587 22.8413 22.6389 22.7085 22.7717C22.5757 22.9046 22.3955 22.9792 22.2076 22.9792Z" fill="white"/>
<path d="M23.6212 12.8801L13.469 3.92549C13.3396 3.81132 13.173 3.74832 13.0004 3.74832C12.8279 3.74832 12.6612 3.81132 12.5318 3.92549L2.37965 12.8806C2.23991 13.0061 2.05606 13.0709 1.86852 13.0609C1.68098 13.0508 1.50511 12.9667 1.37957 12.827L0.431289 11.7738C0.305813 11.6341 0.24097 11.4502 0.251015 11.2627C0.26106 11.0752 0.345172 10.8993 0.484857 10.7737L11.8182 0.768533C12.1425 0.475328 12.5641 0.312988 13.0013 0.312988C13.4385 0.312988 13.8602 0.475328 14.1845 0.768533L18.6664 4.72502V2.43754C18.6664 2.24968 18.7411 2.06951 18.8739 1.93668C19.0067 1.80384 19.1869 1.72921 19.3748 1.72921H22.2081C22.396 1.72921 22.5761 1.80384 22.709 1.93668C22.8418 2.06951 22.9164 2.24968 22.9164 2.43754V8.47741L25.5147 10.772C25.6544 10.8974 25.7386 11.0733 25.7488 11.2608C25.7589 11.4484 25.6941 11.6323 25.5687 11.772L24.6213 12.8266C24.4958 12.9663 24.3199 13.0504 24.1324 13.0604C23.9448 13.0705 23.761 13.0056 23.6212 12.8801V12.8801Z" fill="white"/>
</svg>
