<svg width="33" height="37" viewBox="0 0 33 37" fill="none" xmlns="http://www.w3.org/2000/svg">
<path d="M2.59683 20.3949C2.42822 20.2836 2.66085 21.0923 2.59683 21.1948C2.19176 21.8431 1.72858 24.3 1.88026 24.9955C2.10195 26.0122 3.24976 27.2027 6.08139 29.3532C6.51711 29.6842 6.90451 29.9548 6.94222 29.9548C7.10533 29.9548 8.64349 31.257 9.01108 31.7063C9.92012 32.8172 10.4644 33.333 10.8341 33.4338C11.7632 33.6873 12.4248 33.1585 12.5144 32.0909C12.5601 31.5466 12.5229 31.4 12.23 30.9716C12.0447 30.7005 11.7861 30.3711 11.6554 30.2397C11.5247 30.1082 11.0336 29.2206 10.8341 29C9.61357 27.6493 7.35048 26.1158 5.97733 25.3674C5.7614 25.2497 5.5 25 5.5 24.5C5.5 24.5 5.51815 24.109 5.5 24C5.45215 23.7123 5.56895 23.6702 5.77096 23.7468C5.88917 23.7916 6.6875 23.4241 6.63658 23.293C6.59651 23.1899 5.75929 23.4357 5.71651 23.4357C5.67361 23.4357 5.37437 23.2273 5.05144 22.9727C4.72851 22.718 4.65262 22.6134 4.5 22.5C4.34738 22.3865 4.28321 22.2721 4 22C3.95045 21.9524 3.54359 21.5402 3.5 21.5M2.59683 20.3949C2.68475 20.4529 3.36221 21.3729 3.5 21.5M2.59683 20.3949L3.5 21.5M10.5002 34L10.0184 33.3248L10.4161 34.4395M10.5002 34H11.0002C12.0998 34 12.5623 33.8388 13.0002 32.8851C13.2347 32.0909 13.3265 31.5644 13.0002 31C12.4309 30.0153 11.0977 28.4054 9.56171 27.1492C9.15652 26.8179 8.78256 26.4754 8.7307 26.3882C8.67885 26.301 8.56217 26.2296 8.47142 26.2296C8.38067 26.2296 8.26399 26.1641 8.21213 26.0841C8.09981 25.9108 6.44239 24.7885 6.13561 24.6781C5.97756 24.6213 5.94209 24.5321 6.00043 24.3385C6.11348 23.6779 7.89327 22.8204 8.5 22.5C8.72405 22.3815 9.41774 21.8717 9.5 22C9.68391 22.287 9.51938 23.3509 9.56171 23.6704C9.58623 23.8559 9.65635 24.2783 9.66083 24.3903C9.67429 24.7269 9.87691 24.9595 9.93562 25.3674C10.0345 26.0542 9.79012 26.1714 10.0625 26.1714C10.3189 26.1714 10.362 26.1137 10.3943 25.726C10.4146 25.4811 10.3709 25.0358 10.297 24.7365C10.2231 24.4372 10.1195 23.9043 10.0667 23.5521C9.92766 22.6244 9.86154 22.3868 9.2402 20.5836C8.24348 17.6905 7.91101 17.148 7.46209 17.6822C7.33398 17.8347 7.34117 17.9281 7.50487 18.2352C7.6133 18.4383 7.93246 19.2397 8.21414 20.0161L8.72646 21.4277L9.01497 21.7325L8.00965 21.9883C6.92292 23.0865 6.20196 22.9768 5.97733 22.7846C5.73996 22.6625 5.29929 22.3269 4.99793 22.0388C2.37679 19.5323 1.70241 19.6816 2 19.5C2.06317 19.4614 2.83502 18.663 3.07863 18.2977C3.32212 17.9324 3.67719 17.4258 3.79175 17.3016C3.9063 17.1775 4 17.0418 4 17C4 16.8094 6.5812 13.5088 7.20124 12.9171C7.5587 12.576 8.84514 12 9 12C9.06129 12 9.42622 11.5729 9.5 11.5C9.94739 11.0581 13.7489 10.1275 15 10C15.35 9.96426 15.4957 9.93668 15.6018 9.93668C15.7078 9.93668 15.7477 9.85286 15.9259 9.84704C16.1041 9.8411 16.7803 9.80129 17.4286 9.75856C18.4054 9.69407 19.3736 9.54518 20.3992 9.75856C21.0799 9.90012 21.7402 10.165 21.8857 10.1773C22.3195 10.2493 24.4428 11.1274 25.6078 11.678C25.9644 11.8618 26.8976 12.4133 27 12.5C27.1023 12.5866 27.4402 12.9983 27.5 13C27.6819 13.0052 28.1306 13.9591 28.5 14.5C28.8715 15.044 29.1366 16.0852 29.5 17C29.6208 17.3042 29.8631 17.6639 30 18C30.344 18.8442 31.0563 20.271 31.2111 20.7293C31.3141 21.034 31.1198 21.4917 30.9857 21.621C30.7727 21.8264 29.5796 21.9225 29.0693 22.1783C28.7905 22.3181 28.1675 22.2898 27.9768 22.3805C27.8293 22.4507 27.5572 22.5695 26.8574 22.6514C26.6277 22.6783 26.6219 22.6098 26.6216 19.8985C26.6214 17.389 26.6015 17.1056 26.4174 16.9901C26.2619 16.8927 26.3803 17.0017 26.2511 17.1333C26.1167 17.2704 26.0994 18.3258 26.0439 20.7293C26.0054 22.3968 25.6307 24.2283 25.5031 25.4147C25.1892 28.334 25.1541 35.6552 25.4527 35.9001C25.5882 36.011 25.3575 35.9888 25.5 35.9001C25.6711 35.7935 25.4696 35.1193 25.5 33V30.5H26L27 30C28.481 28.8331 29.5527 27.576 29.877 26.8967C30.2531 26.1091 30.3004 25.3669 30.3004 25C30.32 24.7844 30.5684 22.9599 30.3004 22.7351C30.1524 22.611 30.4951 22.7514 30.3004 22.7802C29.8418 22.8481 29.899 23.3025 29.877 24.6028C29.8493 26.2276 29.6232 26.7783 28.5328 27.8761C27.7361 28.6781 26.5944 29.6744 26.2209 29.8933C25.5031 30 25.4431 29.7655 25.5 28C25.5859 25.3374 26.02 22.5127 26.2511 22.5127C26.3434 22.5127 26.5893 22.8471 26.8574 22.8759C27.0402 22.8759 27.5537 22.66 28.1419 22.6514C29.2578 22.635 30.1854 22.3805 31.3239 22.1783L32.0002 21.621L31.5851 20.5066C31.4188 20.0367 31.1188 19.2332 30.9184 18.721C30.718 18.2088 30.4981 17.6325 30.4297 17.4404C30.0601 16.4013 28.7659 13.8428 28.2687 13.1684C27.929 12.7077 26.7142 11.678 26.5101 11.678C26.4758 11.678 26.0163 11.4422 25.489 11.1541L23.0608 10.1773C22.8434 9.95029 22.4919 9.8198 20.8042 9.33924L19.819 9.05869L19.8929 8.18559C19.9336 7.70538 20.0455 6.94579 20.1415 6.4976C20.5044 4.80367 20.2638 3.03733 19.5646 2.26191C18.7579 1.36715 15.4271 0.696266 14.0008 1.14108C13.2084 1.38823 12.8225 1.63025 11.8682 2.47797C11.0257 3.22639 10.9153 3.28821 10.3634 3.3201C9.82925 3.35095 9.7636 3.38448 9.72624 3.64548C9.66661 4.0634 9.92742 5.13929 10.2203 5.68271C10.3583 5.93882 10.663 6.3841 10.8975 6.67222C11.2798 7.14206 11.3316 7.28944 11.399 8.10038C11.4454 8.65869 11.5679 9.18628 11.7194 9.47952C11.8543 9.74064 11.9463 9.97242 11.9239 9.99453C11.9015 10.0167 11.4603 10.1889 10.9434 10.3773C8.99459 11.0875 7.35201 12.0299 6.51664 12.9171C5.8973 13.5748 4.77165 14.983 4.04188 16.013C3.69078 16.5083 3.2573 17.1108 3.07863 17.3517C2.31551 18.3804 1.57678 19.5079 1.57678 19.644C1.57678 19.7247 1.68285 19.8857 1.81249 20.0015C2.11409 20.2711 2.31586 20.391 2 21C1.64796 21.6788 1.4088 22.8563 1.32124 23.9024C1.25889 24.6472 1.3795 25.2552 1.59034 25.726C2.20615 27.1011 3.36054 27.9999 6.94222 30.5C7.59338 30.9546 8.11347 31.4207 9.00022 32.5L9.66083 33.3248L10.0002 34.7626C10.0002 35.7876 9.85188 36.1131 10.2377 35.9668C10.3735 35.9153 10.4161 35.6233 10.4161 35V34.4395M10.5002 34L10.4161 34.4395M17.5 2C17.9119 2.1213 18.3055 2.21883 18.5 2.26191C18.6945 2.30498 18.8544 2.4071 19 2.5C19.5452 2.84831 19.9592 4.02318 19.819 5.5C19.7513 6.21478 19.6384 6.47851 19.4268 6.67222C19.0434 7.0232 17.1763 7.37512 15.8072 7.37268C14.7037 7.37081 14.6467 7.35801 14.3929 7.05708C13.5304 6.03381 12.7977 6.0198 12 6.5L11.7093 7.91083L11.5 6.5C11.1983 6.13167 10.5 5 10.2203 4.32162C9.75529 3.51045 10.9806 3.68207 11.5 3.5C11.8862 3.36461 12.0187 2.97112 12.5 2.5C13.4891 1.53226 14.2683 1.5014 15.5 1.5C16.1032 1.4993 17.0293 1.86135 17.5 2ZM5.1911 6.74987C5.00265 6.93589 5.15291 7.34206 5.72888 8.20445C6.25617 8.99385 6.38794 9.12225 6.64121 9.09291C7.03686 9.04716 6.84829 8.69303 6.51664 8.20445C5.59606 6.84835 5.62776 6.67222 5.45817 6.67222C5.35445 6.67222 5.23424 6.70714 5.1911 6.74987ZM26.7982 7.26511C26.5713 7.59549 26.2632 8.04624 26.1134 8.26685C25.7757 8.76451 25.816 9.04716 26.2314 9.09478C26.3335 9.10645 26.7736 8.26685 27 8C27.3986 7.53016 27.5322 7.22468 27.5 7C27.5 7 27.2473 6.61087 26.7982 7.26511ZM13.5 7C13.5737 7.04703 13.9015 7.26636 14 7.5C14.1963 7.96589 14.7399 7.74403 16.0729 7.87209C16.9857 7.95975 18.0153 7.73469 18.5 7.5C18.6882 7.40896 19.5721 6.9941 19.6002 6.9941C19.6516 6.9941 19.3597 8.71271 19.262 9.05869C19.2184 9.21293 18.6431 9.1852 17.2329 9.24841C16.0938 9.29957 14.9487 9.22619 13.8829 9.53226C11.7194 10.586 12.7428 10.0806 12.1891 9.05869C12.0731 8.73855 12.0474 8.20457 12.0472 7.87209C12.0468 7.37896 12.176 6.87024 12.3897 6.72251C12.6687 6.5295 13.2798 6.85961 13.5 7ZM29.7445 9.34285C29.0229 10.0489 28.7947 10.3459 28.8231 10.5419C28.8969 11.0528 28.9711 10.9895 30 10C31.042 8.99815 31.5013 8.51643 30.9608 8.44042C30.7719 8.41387 30.4489 8.65357 29.7445 9.34285ZM1.65539 9.07813C1.89004 8.84623 2.14919 9.1446 3 9.99453C3.70078 10.6946 4.06073 10.9137 4.03139 11.117C4.01017 11.2641 3.89974 11.4021 3.78601 11.4235C3.34466 11.5066 1.40877 9.32172 1.65539 9.07813ZM14.0918 25.3674C13.0855 26.3862 12.9401 26.7187 13.4686 26.7928C14 26.5 15.5 25 15.6018 24.6898C15.6018 24.0883 15.1585 24.2872 14.0918 25.3674ZM16.698 28.4258C15.6209 28.9618 15.4105 29.1649 15.5527 29.531C15.6613 29.8103 15.979 29.5149 17 29C17.3265 28.8353 18.5848 28.4258 18.527 28.1244C18.4558 27.7534 17.8477 27.8536 16.698 28.4258ZM15.5698 32.4698C15.3587 32.6783 15.6159 32.8414 16 33C16.5862 33.2419 18.1223 33.7002 18.352 33.6131C18.6362 33.5053 18.3097 33.1221 18 33C17.0537 32.6269 15.7329 32.3088 15.5698 32.4698Z" stroke="#9C449C" stroke-width="0.7"/>
</svg>
