<svg width="33" height="30" viewBox="0 0 33 30" fill="none" xmlns="http://www.w3.org/2000/svg">
<path opacity="0.1" d="M29.9062 15H24.75V10.7143C24.75 8.35045 26.5998 6.42857 28.875 6.42857H29.3906C30.2479 6.42857 30.9375 5.71205 30.9375 4.82143V1.60714C30.9375 0.716518 30.2479 0 29.3906 0H28.875C23.1773 0 18.5625 4.79464 18.5625 10.7143V26.7857C18.5625 28.5603 19.9482 30 21.6562 30H29.9062C31.6143 30 33 28.5603 33 26.7857V18.2143C33 16.4397 31.6143 15 29.9062 15ZM11.3438 15H6.1875V10.7143C6.1875 8.35045 8.0373 6.42857 10.3125 6.42857H10.8281C11.6854 6.42857 12.375 5.71205 12.375 4.82143V1.60714C12.375 0.716518 11.6854 0 10.8281 0H10.3125C4.61484 0 0 4.79464 0 10.7143V26.7857C0 28.5603 1.38574 30 3.09375 30H11.3438C13.0518 30 14.4375 28.5603 14.4375 26.7857V18.2143C14.4375 16.4397 13.0518 15 11.3438 15Z" fill="#9C449C"/>
</svg>
