<svg width="20" height="36" viewBox="0 0 20 36" fill="none" xmlns="http://www.w3.org/2000/svg">
<path fill-rule="evenodd" clip-rule="evenodd" d="M8.82545 0.0998819C7.36186 0.350513 5.92743 1.12428 4.83727 2.25113C3.28846 3.85225 2.4438 6.17502 2.5944 8.4191L2.63829 9.07282L2.42403 9.29813C1.872 9.87851 1.72831 10.8684 2.08758 11.6155C2.42458 12.3164 3.1241 12.7919 3.82196 12.7945C4.08681 12.7954 4.13679 12.8321 4.66911 13.417L5.2349 14.0385L4.523 14.3985C3.46332 14.9345 3.18251 15.2676 3.38045 15.7538C3.55435 16.1809 4.08301 16.3184 4.47075 16.0375C4.72579 15.8527 5.7948 15.325 5.91403 15.325C5.96358 15.325 6.00408 15.3913 6.00408 15.4724C6.00408 15.5535 6.05426 15.7987 6.11557 16.0174C6.53669 17.5195 7.76418 18.7061 9.21796 19.0167C9.82797 19.147 10.1976 19.147 10.8076 19.0167C12.3468 18.6879 13.6937 17.3229 14.0184 15.7629C14.1235 15.2575 14.1024 15.2612 14.8163 15.625C15.52 15.9835 15.9694 16.3078 16.5343 16.8645C17.6413 17.9553 18.2856 19.1908 18.5508 20.7315C18.6733 21.4432 18.6965 25.8139 18.5801 26.2405C18.5408 26.3843 18.4244 26.6041 18.3213 26.7289C18.2182 26.8536 16.9705 28.0441 15.5486 29.3744L12.9633 31.7931L12.8637 31.4936C12.7008 31.0029 12.448 30.6545 11.7831 30.0039L11.1532 29.3876L12.8539 27.6799C13.7893 26.7406 14.5902 25.9046 14.6337 25.822C14.6858 25.7227 14.7127 25.1608 14.7127 24.1647C14.7127 22.7534 14.7037 22.646 14.5714 22.4749C14.3978 22.2504 14.0283 22.1676 13.7406 22.2888C13.3773 22.442 13.3303 22.6366 13.3303 23.9894V25.2065L11.7492 26.8142C10.5612 28.0221 10.1431 28.4066 10.0677 28.3607C10.0125 28.3271 9.23116 27.6043 8.33134 26.7544L6.69524 25.2092V23.9875C6.69524 22.9666 6.67603 22.7327 6.57837 22.5646C6.34538 22.1632 5.73287 22.1144 5.45413 22.4749C5.32164 22.6464 5.31307 22.7513 5.31535 24.1776C5.31707 25.2387 5.3432 25.7419 5.40174 25.8442C5.44791 25.9247 6.30398 26.7612 7.30415 27.7032L9.12258 29.4158L8.08889 30.4675L7.05512 31.5193L6.50724 31.0346C3.26579 28.1674 1.86703 26.9185 1.73951 26.7778C1.36615 26.3661 1.35778 26.2843 1.37714 23.239C1.38695 21.6905 1.37085 20.3669 1.34127 20.2978C1.25729 20.1016 0.904731 19.9478 0.650248 19.9964C0.0387124 20.1131 -0.0248051 20.5007 0.0063661 23.9245C0.0318698 26.7313 0.0337357 26.7445 0.494253 27.4403C0.616588 27.6251 1.14442 28.1572 1.66708 28.6225L2.61742 29.4686V31.9573C2.61742 34.7855 2.64589 35.0319 3.0223 35.4566C3.53424 36.0344 3.04787 35.9967 10.0222 35.9985L16.2174 36L16.5871 35.8035C16.8561 35.6605 17.0135 35.5136 17.1652 35.2641L17.3736 34.9213L17.3939 32.232L17.4142 29.5427L18.3476 28.6753C19.3022 27.7881 19.6604 27.346 19.8772 26.7877C19.9876 26.5031 20 26.1882 20 23.6583C20 20.6244 19.9806 20.4019 19.6148 19.2529C18.9304 17.1027 17.3147 15.2457 15.3072 14.302L14.7775 14.053L15.3498 13.4242C15.8889 12.8321 15.9386 12.7954 16.2036 12.7945C16.6254 12.7929 17.087 12.6051 17.435 12.2933C18.2948 11.5233 18.3751 10.2033 17.6155 9.32317L17.3882 9.05974L17.4317 8.41256C17.5793 6.21123 16.7453 3.88031 15.2492 2.31238C13.5352 0.516194 11.164 -0.300537 8.82545 0.0998819ZM11.0592 1.51197C13.5145 1.98313 15.4382 4.01702 15.9566 6.68985C16.0513 7.17804 16.0826 8.39835 16.0026 8.47993C15.9707 8.51234 15.5664 8.53239 15.1041 8.52451C12.825 8.48562 10.3516 7.76404 9.08699 6.76918C8.60532 6.39028 8.30992 6.25336 7.97388 6.25336C7.54232 6.25336 7.25086 6.4433 6.53074 7.19365C5.9275 7.82226 5.74995 7.96242 5.2398 8.21263C4.91448 8.37212 4.50642 8.52247 4.33307 8.54666L4.01784 8.59061L3.97049 8.26896C3.89108 7.73049 4.03256 6.65237 4.29036 5.83142C5.24036 2.80556 8.14411 0.952549 11.0592 1.51197ZM8.45202 8.05039C10.0065 9.15601 12.6395 9.89433 15.1969 9.9418C16.2778 9.96184 16.5261 10.046 16.6913 10.4483C16.7723 10.6456 16.777 10.745 16.7142 10.9383C16.5905 11.3197 16.3882 11.4137 15.8147 11.3562L15.3297 11.3076L15.1076 11.5473C14.9854 11.6792 14.7111 12.0066 14.4981 12.275C13.818 13.1314 12.7496 13.8457 11.6024 14.2108C11.1522 14.354 10.9432 14.3757 10.0128 14.3757C9.08242 14.3757 8.87376 14.354 8.42652 14.2111C7.27222 13.8423 6.13319 13.0727 5.47445 12.2168C5.2906 11.9777 5.0402 11.6754 4.918 11.5449L4.69586 11.3076L4.21088 11.3562C3.62554 11.4149 3.4242 11.3151 3.30387 10.9064C3.23808 10.6831 3.24354 10.5984 3.33504 10.4183C3.4842 10.1249 3.50942 10.1135 4.30681 9.97795C5.56167 9.76466 6.34171 9.3487 7.27899 8.39315C7.62319 8.04224 7.9266 7.74955 7.95328 7.74266C7.97996 7.73577 8.20438 7.87423 8.45202 8.05039ZM7.82874 10.8525C7.50991 11.1769 7.50991 11.4563 7.82874 11.7807C8.08018 12.0366 8.28946 12.0788 8.59785 11.9358C8.9471 11.7739 9.08788 11.2148 8.85358 10.9205C8.5521 10.5419 8.15966 10.5158 7.82874 10.8525ZM11.3336 10.7116C10.9258 10.9415 10.8717 11.431 11.2154 11.7807C11.5604 12.1317 12.0528 12.0741 12.2642 11.658C12.5867 11.0234 11.9425 10.3682 11.3336 10.7116ZM8.69939 15.7216C9.7525 15.9284 11.2439 15.8262 12.2586 15.4776C12.4862 15.3994 12.6816 15.3447 12.6928 15.3561C12.704 15.3675 12.6493 15.5505 12.5712 15.7627C12.1925 16.7928 11.4559 17.4455 10.443 17.6481C9.64599 17.8077 8.79262 17.518 8.15786 16.8723C7.86537 16.5748 7.51702 15.9404 7.41943 15.5276L7.37589 15.3432L7.77842 15.4815C7.99973 15.5575 8.41421 15.6656 8.69939 15.7216ZM1.58068 17.0892C1.14159 17.2683 1.02002 17.8697 1.3517 18.222C1.70633 18.5986 2.39915 18.4078 2.49315 17.9076C2.59634 17.3581 2.07272 16.8884 1.58068 17.0892ZM10.8415 31.0492C11.5093 31.7042 11.6301 31.931 11.6175 32.5062C11.6015 33.2344 11.0004 33.8286 10.2735 33.8345C9.76549 33.8386 9.52034 33.7087 8.77984 33.0432L8.1343 32.463L9.12452 31.4538C9.66908 30.8986 10.1395 30.4445 10.1698 30.4445C10.2001 30.4445 10.5024 30.7166 10.8415 31.0492ZM6.29064 32.7095L8.37765 34.5584L6.24523 34.577C4.58528 34.5915 4.1005 34.5759 4.0573 34.5067C4.02682 34.4577 4.00139 33.5995 4.00077 32.5994C3.99987 31.0256 4.01341 30.7864 4.10168 30.8208C4.15773 30.8427 5.14276 31.6926 6.29064 32.7095ZM15.9706 34.5372C15.939 34.5694 15.0495 34.5874 13.9939 34.5771L12.0749 34.5584L14.033 32.7161L15.9913 30.8738L16.0097 32.6762C16.0199 33.6675 16.0023 34.505 15.9706 34.5372Z" fill="#9C449C"/>
</svg>
