<svg width="49" height="25" viewBox="0 0 49 25" fill="none" xmlns="http://www.w3.org/2000/svg">
<path fill-rule="evenodd" clip-rule="evenodd" d="M8.67855 0.221444C3.44131 1.622 2.48522 8.4843 7.14459 11.2298C10.0808 12.9599 13.933 11.8081 15.4182 8.75602C16.1889 7.17228 16.303 5.17803 15.704 3.76162C14.5424 1.0149 11.4806 -0.527862 8.67855 0.221444ZM37.7832 0.112902C37.2866 0.207785 36.3616 0.608049 35.7274 1.00221C32.7284 2.86645 32.0717 7.17155 34.3737 9.87558C36.6459 12.5445 40.3846 12.7682 43.0064 10.3917C44.296 9.22263 44.8606 7.91744 44.8642 6.09662C44.8722 2.20057 41.5498 -0.60689 37.7832 0.112902ZM12.3146 1.86323C13.0267 2.20984 13.631 2.76499 14.1067 3.50966C14.7532 4.52141 14.8161 4.79558 14.7392 6.26589C14.6666 7.65547 14.5429 8.03671 13.9075 8.827C12.9546 10.0124 12.0029 10.5678 10.591 10.7625C9.66326 10.8903 9.23216 10.802 8.12493 10.2573C6.00704 9.21531 4.96605 7.01325 5.55386 4.81826C6.32751 1.92958 9.5536 0.519507 12.3146 1.86323ZM40.8162 1.67713C41.7677 2.08739 43.0522 3.41282 43.4016 4.34409C44.126 6.27638 43.3062 8.74455 41.5272 9.98754C40.6752 10.5827 40.2364 10.7156 39.1012 10.7227C34.8376 10.7486 32.691 6.07735 35.4923 2.86938C35.9094 2.3918 36.5802 1.85665 36.9829 1.6803C37.9477 1.25759 39.8402 1.25589 40.8162 1.67713ZM20.7588 7.20448C19.7886 8.06086 19.4924 9.04969 19.8655 10.1863C20.2231 11.2759 24.7939 15.8547 25.3209 15.6515C26.0213 15.3812 25.7289 14.889 23.627 12.7989C21.2044 10.39 20.7551 9.68411 21.0865 8.80821C21.327 8.17233 22.0108 7.68206 22.6574 7.68206C22.866 7.68206 23.4596 8.06623 23.9764 8.53576C24.4934 9.0053 24.9989 9.38946 25.1001 9.38946C25.2013 9.38946 25.7068 9.0053 26.2238 8.53576C27.3335 7.52766 27.9402 7.46644 28.75 8.28087C29.6704 9.20604 29.5052 9.75826 27.7687 11.5669C26.9014 12.4701 26.1918 13.3806 26.1918 13.5904C26.1918 14.4914 26.9361 14.1404 28.602 12.4545C30.045 10.9939 30.3752 10.512 30.4822 9.70997C30.823 7.15472 27.9111 5.45 25.9868 7.07789L25.2595 7.69328L24.3575 7.07789C23.0783 6.20516 21.8415 6.24858 20.7588 7.20448ZM4.80326 12.4218C2.49954 14.2465 1.10119 16.4008 0.36539 19.2583C-0.0579465 20.9022 -0.126117 23.4387 0.227593 24.3744L0.464127 25H10.1599C17.6535 25 19.8988 24.9307 20.0455 24.6951C20.3711 24.1722 20.218 20.0661 19.8243 18.7624C19.6188 18.0816 19.155 16.9381 18.7937 16.2213C17.7173 14.0858 14.523 11.0254 13.8236 11.4601C13.2969 11.7874 13.664 12.4786 14.8682 13.4277C17.4517 15.4629 18.9138 18.5541 18.9138 21.9798V23.7865L10.1196 23.7224L1.32536 23.6585L1.24894 22.5833C1.14244 21.0869 1.81152 18.2719 2.60264 16.8876C3.34208 15.5939 5.32364 13.4665 6.3656 12.8477C6.81223 12.5823 7.02111 12.2769 6.97501 11.9559C6.85905 11.1461 6.24891 11.2771 4.80326 12.4218ZM33.9458 12.1655C31.5969 13.899 29.9315 16.3337 29.2224 19.0712C28.7825 20.7691 28.7381 24.2917 29.1515 24.7073C29.3682 24.9251 31.906 25 39.0721 25C47.6291 25 48.7181 24.9571 48.8489 24.6141C49.1335 23.869 48.9923 20.209 48.6242 18.7887C48.4197 17.9992 47.9556 16.8035 47.5932 16.1313C46.3996 13.9192 43.3754 11.0359 42.6929 11.4601C42.1478 11.7986 42.5083 12.503 43.675 13.3787C46.0699 15.1763 47.7832 18.8131 47.7832 22.0986V23.7804H38.9283H30.0734V22.4508C30.0734 18.7309 31.5843 15.6237 34.4836 13.3804C35.9203 12.2689 36.2002 11.7542 35.512 11.4888C35.0331 11.304 35.2252 11.221 33.9458 12.1655Z" fill="#9C449C"/>
</svg>
