<svg width="45" height="23" viewBox="0 0 45 23" fill="none" xmlns="http://www.w3.org/2000/svg">
<path fill-rule="evenodd" clip-rule="evenodd" d="M7.97009 0.203728C3.16039 1.49224 2.28235 7.80555 6.56136 10.3314C9.25785 11.9231 12.7956 10.8635 14.1596 8.05554C14.8674 6.5985 14.9721 4.76379 14.422 3.46069C13.3553 0.933707 10.5434 -0.485633 7.97009 0.203728ZM34.6989 0.10387C34.2428 0.191162 33.3933 0.559405 32.8109 0.922037C30.0567 2.63714 29.4536 6.59782 31.5677 9.08554C33.6544 11.5409 37.0879 11.7467 39.4956 9.56037C40.68 8.48482 41.1985 7.28404 41.2018 5.60889C41.2092 2.02452 38.158 -0.558339 34.6989 0.10387ZM11.3094 1.71417C11.9633 2.03305 12.5182 2.54379 12.9551 3.22888C13.5489 4.1597 13.6066 4.41193 13.536 5.76462C13.4694 7.04304 13.3557 7.39378 12.7722 8.12084C11.8971 9.21143 11.0231 9.72239 9.72639 9.90146C8.87442 10.019 8.47851 9.93782 7.46167 9.43673C5.51667 8.47808 4.56065 6.45219 5.10049 4.4328C5.81098 1.77521 8.77372 0.477947 11.3094 1.71417ZM37.4842 1.54296C38.3581 1.9204 39.5378 3.1398 39.8586 3.99656C40.5238 5.77427 39.771 8.04499 38.1373 9.18854C37.3548 9.73608 36.9518 9.85838 35.9093 9.86489C31.9937 9.88867 30.0224 5.59116 32.595 2.63983C32.978 2.20045 33.594 1.70812 33.9639 1.54587C34.8499 1.15699 36.5879 1.15541 37.4842 1.54296ZM19.0642 6.62812C18.1732 7.41599 17.9012 8.32572 18.2439 9.37143C18.5723 10.3738 22.7699 14.5863 23.2539 14.3994C23.8971 14.1507 23.6286 13.6979 21.6983 11.775C19.4735 9.5588 19.0608 8.90938 19.3652 8.10356C19.586 7.51854 20.214 7.0675 20.8078 7.0675C20.9994 7.0675 21.5446 7.42093 22.0191 7.8529C22.4939 8.28487 22.9582 8.63831 23.0511 8.63831C23.144 8.63831 23.6083 8.28487 24.0831 7.8529C25.1022 6.92545 25.6594 6.86913 26.4031 7.6184C27.2484 8.46956 27.0966 8.9776 25.5019 10.6415C24.7054 11.4725 24.0537 12.3102 24.0537 12.5032C24.0537 13.3321 24.7372 13.0092 26.2672 11.4581C27.5924 10.1144 27.8956 9.671 27.9938 8.93317C28.3069 6.58234 25.6326 5.014 23.8654 6.51165L23.1975 7.07782L22.3691 6.51165C21.1943 5.70875 20.0585 5.74869 19.0642 6.62812ZM4.41116 11.4281C2.29549 13.1068 1.0113 15.0887 0.335562 17.7176C-0.0532162 19.2301 -0.115822 21.5636 0.209014 22.4244L0.426239 23H9.33048C16.2124 23 18.2744 22.9363 18.4092 22.7195C18.7082 22.2384 18.5676 18.4608 18.206 17.2614C18.0173 16.6351 17.5913 15.5831 17.2595 14.9236C16.271 12.9589 13.3375 10.1434 12.6951 10.5433C12.2114 10.8444 12.5485 11.4804 13.6545 12.3535C16.027 14.2259 17.3698 17.0697 17.3698 20.2215V21.8836L9.2935 21.8246L1.21716 21.7658L1.14698 20.7766C1.04918 19.3999 1.66365 16.8101 2.39018 15.5366C3.06926 14.3464 4.88905 12.3892 5.84596 11.8199C6.25613 11.5757 6.44795 11.2948 6.40562 10.9995C6.29913 10.2544 5.7388 10.375 4.41116 11.4281ZM31.1747 11.1922C29.0176 12.787 27.4881 15.027 26.8369 17.5455C26.4329 19.1075 26.3922 22.3483 26.7718 22.7307C26.9708 22.9311 29.3014 23 35.8826 23C43.741 23 44.7411 22.9605 44.8612 22.645C45.1226 21.9595 44.9929 18.5923 44.6549 17.2856C44.4671 16.5592 44.0409 15.4592 43.708 14.8408C42.6119 12.8057 39.8345 10.153 39.2078 10.5433C38.7072 10.8547 39.0382 11.5028 40.1097 12.3084C42.3091 13.9622 43.8825 17.3081 43.8825 20.3307V21.878H35.7505H27.6184V20.6548C27.6184 17.2324 29.006 14.3738 31.6686 12.31C32.988 11.2874 33.2451 10.8139 32.613 10.5697C32.1733 10.3996 32.3497 10.3233 31.1747 11.1922Z" fill="#9C449C"/>
</svg>
