<svg width="21" height="34" viewBox="0 0 21 34" fill="none" xmlns="http://www.w3.org/2000/svg">
<path fill-rule="evenodd" clip-rule="evenodd" d="M1.71073 0.185423C0.96675 0.499045 0.415675 1.05157 0.145197 1.75498C0.0147766 2.09423 0 2.42832 0 5.03434C0 7.64583 0.0140539 7.96179 0.140539 8.19392C0.266864 8.42589 0.281079 8.73984 0.281079 11.3064C0.281079 14.0721 0.286218 14.1675 0.447557 14.3732C0.656118 14.6394 1.08593 14.6645 1.32509 14.4244C1.47807 14.2709 1.4857 14.1558 1.4857 12.0064C1.4857 10.7651 1.50088 9.74954 1.51935 9.74954C1.5379 9.74954 1.78051 9.80805 2.05854 9.87955C2.95382 10.1097 3.89985 9.86697 4.6072 9.22562L4.93879 8.92498L5.2263 9.20523C5.60086 9.57036 6.1035 9.81748 6.69722 9.92823C7.09154 10.0019 7.2703 9.994 7.71666 9.8835C8.27785 9.74446 8.95517 9.36684 9.15385 9.08207C9.26604 8.92135 9.2748 8.92401 9.60358 9.22216C10.1616 9.7281 10.7318 9.94693 11.4841 9.94387C11.8809 9.94225 12.2342 9.89389 12.4083 9.81732C12.6554 9.70867 12.7293 9.70754 13.0106 9.80813C13.1869 9.87124 13.6098 9.9433 13.9505 9.96837L14.5698 10.014L14.5345 10.3452C14.5151 10.5274 14.4778 10.8851 14.4515 11.1399L14.4038 11.6034L13.6265 11.6043C13.1991 11.6048 12.6589 11.6562 12.4262 11.7183C10.8634 12.1359 9.58808 13.3157 9.06326 14.8293C8.9065 15.2814 8.83278 15.7185 8.76821 16.5788L8.6822 17.7256L8.87245 17.9288C9.11105 18.1839 9.50905 18.2018 9.72058 17.9672C9.83904 17.8359 9.88963 17.5623 9.96898 16.6226C10.0611 15.5334 10.0908 15.3981 10.3563 14.8589C10.825 13.9071 11.5071 13.306 12.5017 12.9681C12.8882 12.8369 13.2835 12.7851 14.1525 12.7519C15.1342 12.7144 15.3143 12.687 15.4315 12.5569C15.535 12.4421 15.5924 12.1185 15.6688 11.2186C15.7242 10.5658 15.772 10.0225 15.775 10.0115C15.7781 10.0004 15.8328 9.99134 15.8965 9.99134C16.1312 9.99134 16.4498 9.62508 16.4498 9.35547C16.4498 8.87114 16.3269 8.82737 14.8344 8.78014C13.3344 8.73275 13.1424 8.67632 12.7576 8.16998C12.5917 7.95163 12.5289 7.76407 12.5034 7.41136C12.4605 6.81475 12.6917 6.35959 13.1852 6.06926L13.5229 5.87066L15.5953 5.89581C17.525 5.91926 17.6939 5.93305 18.0462 6.09643C18.5736 6.34097 18.9514 6.65886 19.2743 7.12998C19.7767 7.86281 19.8075 8.14331 19.7802 11.7429C19.7576 14.7146 19.7447 14.9689 19.603 15.2301C19.5189 15.3851 19.0582 15.9954 18.5791 16.5863C17.8573 17.4765 17.708 17.707 17.708 17.9308C17.708 18.1267 17.7662 18.247 17.9196 18.368C18.3461 18.7048 18.4793 18.6156 19.5926 17.2487C20.5135 16.1179 20.7988 15.6318 20.9211 14.9845C21.031 14.4031 21.0241 8.61724 20.9129 8.01321C20.7194 6.96281 20.0811 5.97754 19.2209 5.40148L18.7118 5.06053L18.6696 3.59665C18.6294 2.20304 18.6163 2.1085 18.3982 1.63021C18.1321 1.04681 17.5697 0.475589 17.0026 0.212747C16.6967 0.0709689 16.4769 0.0373579 15.8609 0.0383251C14.9947 0.0396954 14.5985 0.183488 14.0056 0.71151L13.6746 1.00635L13.3932 0.739963C13.2385 0.593509 12.9263 0.375965 12.6995 0.256514C12.3365 0.0654073 12.1957 0.0392924 11.5242 0.0382446C10.8668 0.0371968 10.7002 0.0661329 10.3196 0.247325C10.0767 0.363069 9.74693 0.587062 9.58679 0.745202L9.29567 1.03271L9.02568 0.753101C8.87711 0.599313 8.55636 0.37524 8.31286 0.255224C7.92513 0.0641178 7.7756 0.0371967 7.10728 0.0383251C6.24115 0.0396954 5.84483 0.183488 5.252 0.71151L4.92105 1.00635L4.6288 0.729726C3.89479 0.0346982 2.62857 -0.201464 1.71073 0.185423ZM3.59154 1.44353C3.74429 1.54856 3.95638 1.76199 4.06279 1.91787L4.25634 2.20119L4.27946 4.88442C4.30171 7.46133 4.29609 7.58054 4.13676 7.89392C3.68229 8.78804 2.56922 9.02235 1.73795 8.39881C1.19386 7.99073 1.16824 7.8375 1.16624 4.97913C1.16511 3.36999 1.19603 2.34136 1.24968 2.19837C1.36066 1.90313 1.78292 1.45853 2.08801 1.31594C2.45968 1.14225 3.25104 1.20939 3.59154 1.44353ZM7.82314 1.36342C8.21143 1.56226 8.52263 1.93005 8.6296 2.31653C8.6781 2.49192 8.71272 3.62107 8.71296 5.03869C8.71344 7.45295 8.7128 7.46238 8.51524 7.86015C8.17369 8.54817 7.42136 8.89508 6.6961 8.69913C6.24862 8.57815 5.71216 8.0511 5.59114 7.61335C5.4718 7.18189 5.4706 2.81215 5.58977 2.37448C5.85391 1.40396 6.94112 0.911805 7.82314 1.36342ZM12.3885 1.46562C12.9425 1.83357 13.0501 2.17959 13.0501 3.59342V4.8018L12.7146 4.95035C11.9079 5.30758 11.3575 6.17074 11.2999 7.16923C11.2697 7.69331 11.2947 7.85926 11.4693 8.29314L11.6742 8.80206L11.3577 8.7595C10.8843 8.69575 10.4687 8.44596 10.1991 8.06311L9.95822 7.72087L9.93501 5.07077C9.91324 2.57712 9.92111 2.40253 10.0682 2.11543C10.2495 1.76167 10.5942 1.41266 10.8818 1.29176C11.2476 1.13797 12.0313 1.22841 12.3885 1.46562ZM16.5767 1.36342C16.965 1.56226 17.2762 1.93005 17.3832 2.31653C17.4288 2.48136 17.4663 3.07951 17.4666 3.64565L17.467 4.67502L15.8809 4.65317L14.2949 4.63133L14.2712 3.70441C14.2445 2.66247 14.3353 2.17346 14.6265 1.7898C15.0531 1.22768 15.9351 1.03488 16.5767 1.36342ZM0.707355 16.038C0.31545 16.1948 0.255059 16.433 0.303646 17.6312C0.379135 19.4907 0.744457 20.4256 1.8552 21.6019L2.52971 22.3163V26.381C2.52971 32.938 2.53083 33.5048 2.69619 33.7157C2.92635 34.0094 3.33769 34.0094 3.56785 33.7157C3.73329 33.5047 3.73433 32.94 3.73256 26.3241C3.73056 18.6168 3.81882 21.9212 2.81215 20.8637C1.81207 19.8131 1.48972 18.9398 1.48707 17.2746C1.48594 16.5368 1.46065 16.3477 1.34516 16.2136C1.17017 16.0105 0.936795 15.9462 0.707355 16.038ZM15.6702 20.1584C15.2978 20.6099 14.9561 21.1099 14.9066 21.276C14.8434 21.4872 14.8169 23.6621 14.8169 28.6031V33.6131L15.014 33.8108C15.2652 34.063 15.5731 34.063 15.8243 33.8108L16.0215 33.6131L16.0216 28.6341L16.0219 21.6383L16.624 20.8879C17.0672 20.3355 17.2261 20.0749 17.2261 19.9005C17.2261 19.5771 16.9723 19.3411 16.6245 19.3411C16.367 19.3411 16.2892 19.4077 15.6702 20.1584Z" fill="#9C449C"/>
</svg>
