<svg width="36" height="36" viewBox="0 0 36 36" fill="none" xmlns="http://www.w3.org/2000/svg">
<path fill-rule="evenodd" clip-rule="evenodd" d="M12.453 0.107384C11.749 0.358143 11.1896 0.901603 10.952 1.56549L10.8561 1.83351L10.2472 1.8284C9.7906 1.82458 9.5725 1.85819 9.37557 1.96271C9.04767 2.13671 8.64443 2.51173 8.51054 2.76706C8.38303 3.01017 8.00815 4.47443 8.04508 4.5851C8.07142 4.66418 9.08047 4.95643 9.13593 4.90099C9.15102 4.8859 9.24716 4.54361 9.3496 4.14031C9.5761 3.24839 9.61025 3.18109 9.89657 3.06254C10.3454 2.87668 10.8016 3.17614 10.8015 3.65642C10.8014 3.80333 10.7507 4.21061 10.689 4.56139C10.5272 5.47926 10.5401 5.77669 10.75 5.97395C11.0893 6.29246 11.2638 6.2172 12.8326 5.07566C14.5713 3.81054 14.6871 3.73656 14.9293 3.73656C15.294 3.73656 15.583 4.02791 16.5649 5.38517C17.6094 6.82894 17.6785 6.98674 17.4686 7.44729C17.4123 7.57087 16.2312 8.45055 14.1477 9.92073L10.9141 12.2024L8.8193 17.1044C7.66712 19.8006 6.64283 22.1489 6.54317 22.3232C6.27711 22.7878 5.61659 23.357 5.11623 23.5526C4.79517 23.6781 4.52191 23.7224 4.04699 23.7259C3.48239 23.73 3.35165 23.7035 2.9099 23.4949C2.07339 23.1 1.5385 22.4424 1.30119 21.5169C1.14036 20.8897 1.19537 20.1554 1.44327 19.6212C1.54293 19.4061 3.13693 16.7148 4.98542 13.6403L8.34633 8.0504L8.58979 7.09434L8.83326 6.13827L8.52277 6.05821C8.35203 6.01409 8.15322 5.96322 8.08095 5.94499C8.00868 5.92683 7.88619 5.89412 7.80867 5.87228C7.68453 5.83739 7.64281 5.93396 7.46028 6.67888L7.25284 7.52517L3.83302 13.2276C1.83705 16.5558 0.339574 19.1323 0.236379 19.4158C-0.29888 20.8867 0.0928081 22.5918 1.22982 23.7405C2.24676 24.7679 3.50535 25.154 4.88478 24.8617C5.51655 24.7278 6.11403 24.4463 6.61784 24.0454C6.91241 23.811 7.2617 23.645 8.0059 23.3857L9.00032 23.0392V29.3355V35.6317L9.18457 35.8158L9.36874 36H20.7082H32.0476L32.2318 35.8158L32.416 35.6317V31.614V27.5964H31.8156H31.2152V31.1979V34.7995H29.1138H27.0124V29.9974V25.1953H29.1138H31.2152V25.7956V26.3958H31.8156H32.416V22.2414C32.416 17.6829 32.387 17.2892 31.9724 16.2215C31.164 14.1403 29.1896 12.4845 27.0863 12.124C26.4619 12.0169 26.4222 12.0449 26.4007 12.6086C26.3932 12.8047 26.3842 13.0236 26.3807 13.0953C26.3759 13.1962 26.4615 13.2381 26.76 13.2811C27.7713 13.4266 28.7477 13.9496 29.6017 14.8033C30.2932 15.4947 30.6117 15.998 30.9424 16.9222L31.1777 17.5795L31.2015 20.7872L31.2253 23.9948H29.1189H27.0124V22.7943V21.5938H26.412H25.8116V28.1966V34.7995H18.0064H10.2011V28.3808V21.9621L10.0169 21.778C9.77341 21.5345 9.60395 21.5448 8.74657 21.855C8.34956 21.9987 8.02466 22.0861 8.02466 22.0491C8.02466 21.9827 11.169 14.6064 11.2223 14.5479C11.2375 14.5313 11.3377 14.717 11.445 14.9606C11.7528 15.6593 12.3899 16.5571 12.9896 17.1375C14.2888 18.3948 15.8605 19.0769 17.6686 19.1684C21.0797 19.3411 24.1011 17.0979 24.9988 13.7263C25.1079 13.3166 25.1629 12.8167 25.1911 11.9779L25.2306 10.8032L25.5751 10.7516C25.964 10.6933 26.5067 10.439 26.8391 10.1593C26.9619 10.056 27.1772 9.75866 27.3175 9.4986C27.5504 9.06686 27.5725 8.97052 27.5725 8.38804C27.5725 7.80512 27.5505 7.70945 27.3165 7.27569C26.9368 6.57158 26.3337 6.13827 25.5754 6.0246L25.233 5.9732L25.19 5.1735C25.1112 3.70279 24.6357 2.635 23.5978 1.59738C22.9154 0.915109 22.2896 0.521339 21.4212 0.227812L20.8208 0.0248487L16.8056 0.00601555C13.282 -0.0104916 12.7491 0.00196379 12.453 0.107384ZM21.1675 1.41633C21.8838 1.6947 22.2779 1.94523 22.7639 2.43114C23.516 3.18304 23.9174 4.07975 23.9852 5.15962L24.0253 5.79942L23.3111 4.74057C22.9182 4.15824 22.5405 3.66025 22.4719 3.63384C22.4032 3.6075 21.089 3.58597 19.5514 3.58597H16.7557L16.5287 3.30362C16.4038 3.1483 16.1292 2.92741 15.9184 2.81268C15.1282 2.38267 14.3522 2.48426 13.4601 3.13457C13.176 3.34158 12.8786 3.51093 12.7991 3.51093C12.5843 3.51093 12.0927 2.95614 12.035 2.64858C11.9639 2.26967 12.0537 1.89984 12.283 1.62739C12.662 1.17712 12.5763 1.18508 16.8056 1.20503L20.6707 1.22319L21.1675 1.41633ZM30.0321 2.79872C29.6922 3.47994 29.414 4.12507 29.414 4.2323C29.414 4.37231 29.5636 4.5815 29.944 4.97384L30.4741 5.5203L29.9816 6.50293C29.7107 7.04331 29.4891 7.49636 29.4891 7.50964C29.4891 7.55586 30.5374 8.04027 30.5675 8.00801C30.7101 7.85509 31.8156 5.49382 31.8156 5.3421C31.8156 5.20029 31.6682 4.99357 31.2856 4.59913L30.7556 4.05267L31.2526 3.06104C31.526 2.51563 31.7392 2.06011 31.7263 2.0487C31.6648 1.99408 30.7618 1.56009 30.7097 1.56009C30.6771 1.56009 30.3721 2.1175 30.0321 2.79872ZM22.9538 6.39083L24.0213 7.99517L23.9921 10.4989C23.9686 12.5138 23.9393 13.0834 23.8421 13.4163C23.3698 15.034 22.5505 16.1769 21.2588 17.02C20.375 17.5969 19.4494 17.8977 18.3395 17.9689C15.7037 18.1381 13.158 16.4314 12.3473 13.9516C12.2441 13.636 12.1389 13.2592 12.1136 13.1143L12.0675 12.8511L13.5498 11.8082L15.0321 10.7652L15.75 10.6339C16.417 10.5118 17.0307 10.3147 17.0307 10.2224C17.0307 10.2006 16.9608 10.0459 16.8754 9.87842C16.79 9.71102 16.7308 9.56643 16.744 9.55705C17.6036 8.95004 18.0855 8.58313 18.2459 8.41378C18.558 8.08416 18.7533 7.58145 18.7552 7.10319C18.7578 6.4294 18.632 6.15793 17.7944 5.03034L17.6133 4.78649H19.7498H21.8863L22.9538 6.39083ZM25.882 7.39934C26.2498 7.67088 26.3745 7.92119 26.3745 8.38804C26.3745 8.71459 26.3348 8.88041 26.2197 9.03445C26.0042 9.3231 25.7415 9.50348 25.4551 9.55953L25.2112 9.60732V8.38804V7.16877L25.4551 7.21656C25.5893 7.24282 25.7814 7.32506 25.882 7.39934ZM34.7801 7.76332C32.9368 9.51893 33.075 9.36227 33.1112 9.65609C33.1295 9.80466 33.2577 10.172 33.3961 10.4724L33.6478 11.0186L32.8277 11.7912L32.0077 12.5638L32.4093 12.9884L32.811 13.413L33.2327 13.0422C33.4647 12.8381 33.9499 12.3911 34.3111 12.0487C35.0853 11.3148 35.0944 11.276 34.6997 10.402C34.5523 10.0755 34.4425 9.7826 34.4558 9.75094C34.4691 9.71935 34.8177 9.3805 35.2304 8.99798C35.6432 8.61539 35.9893 8.27947 35.9996 8.25149C36.0098 8.22342 35.841 8.0056 35.6243 7.76745L35.2304 7.33444L34.7801 7.76332ZM19.2146 9.70884C19.087 9.98128 18.9994 10.2314 19.02 10.2645C19.0874 10.3736 19.7459 10.5616 20.3827 10.6537C20.8709 10.7243 21.1459 10.7243 21.6341 10.6537C22.2709 10.5616 22.9294 10.3736 22.9968 10.2645C23.043 10.1898 22.5925 9.2134 22.5117 9.2134C22.4795 9.2134 22.3054 9.26938 22.1248 9.33781C21.8949 9.42492 21.5602 9.46229 21.0084 9.46229C20.4565 9.46229 20.1219 9.42492 19.8919 9.33781C19.7114 9.26938 19.5372 9.2134 19.505 9.2134C19.4729 9.2134 19.3421 9.43632 19.2146 9.70884ZM16.9999 13.3136C16.4843 13.424 15.7009 13.745 15.4207 13.9604C15.2781 14.0702 15.282 14.0842 15.5685 14.5002C15.7303 14.7351 15.8878 14.9428 15.9185 14.9618C15.9492 14.9808 16.1439 14.9104 16.3512 14.8054C17.421 14.2634 18.5918 14.2634 19.6615 14.8054C19.8688 14.9104 20.0635 14.9808 20.0942 14.9618C20.1249 14.9428 20.2824 14.7351 20.4442 14.5002C20.7308 14.0842 20.7346 14.0702 20.592 13.9604C20.298 13.7343 19.524 13.4248 18.963 13.3089C18.2648 13.1647 17.6879 13.166 16.9999 13.3136ZM13.8475 20.2733C13.5183 21.0176 13.4762 20.9414 14.3832 21.2414C15.7955 21.7083 16.2854 21.7813 18.0064 21.7813C19.7241 21.7813 20.227 21.7068 21.6057 21.2483C22.0374 21.1047 22.4015 20.9763 22.4148 20.963C22.4426 20.9352 22.0594 20.0107 21.9828 19.9207C21.9547 19.8877 21.7155 19.9421 21.4513 20.0414C20.2814 20.4813 19.6609 20.578 18.0064 20.578C16.3544 20.578 15.8067 20.4936 14.5839 20.0501C14.3077 19.95 14.0694 19.868 14.0543 19.868C14.0391 19.868 13.9461 20.0503 13.8475 20.2733Z" fill="#9C449C"/>
</svg>
