<svg width="26" height="35" viewBox="0 0 26 35" fill="none" xmlns="http://www.w3.org/2000/svg">
<path fill-rule="evenodd" clip-rule="evenodd" d="M8.2435 0.138425C8.07333 0.272149 8.0632 0.313578 8.0632 0.876913V1.47375L7.44916 1.97036C6.85489 2.45097 6.35888 2.97034 5.86404 3.63007C5.67142 3.88685 5.60341 3.93512 5.50878 3.88221C5.30446 3.76797 4.9739 3.84529 4.82802 4.04143C4.63301 4.30354 4.71457 4.52218 5.19313 5.02015C5.41688 5.25294 5.59992 5.47561 5.59992 5.51492C5.59992 5.5543 5.48551 5.67366 5.34579 5.78018C4.64922 6.31097 4.6575 6.39472 5.51719 7.50566C5.88573 7.9819 6.20985 8.40836 6.23757 8.45342C6.27677 8.51734 2.96386 6.95689 2.87785 6.87102C2.86628 6.8594 3.05842 6.68965 3.30482 6.49371C3.5612 6.28991 3.77113 6.06485 3.79556 5.96764C3.88314 5.6189 3.74 5.49475 2.58184 4.91535C1.64128 4.44479 1.48965 4.34771 1.57046 4.26793C1.62273 4.21624 2.0196 3.89608 2.45238 3.55637C3.0591 3.08014 3.27061 2.94942 3.37612 2.98531C3.77401 3.12088 4.12017 2.89828 4.10922 2.514C4.10422 2.33844 4.0334 2.22194 3.79474 1.99661C3.60342 1.81605 3.42265 1.70585 3.31768 1.70585C3.10584 1.70585 0.120403 4.027 0.0305619 4.26157C-0.00303462 4.34942 -0.0100143 4.50297 0.0150291 4.60285C0.0536206 4.75633 0.235015 4.87132 1.18838 5.34653C1.80864 5.65575 2.30828 5.92757 2.2987 5.95061C2.28912 5.97372 2.11224 6.12953 1.90553 6.29695C1.40405 6.70312 1.30641 6.87861 1.43361 7.14483C1.51305 7.31096 1.75945 7.45856 2.84637 7.99113L4.163 8.6363V9.88247V11.1287L3.83162 11.3717C3.46473 11.6408 3.22175 11.9581 2.98794 12.4735C2.75181 12.9937 2.76399 13.9025 3.01429 14.4392C3.41731 15.3035 4.25893 15.9055 5.1661 15.9782C5.58726 16.012 5.59992 16.0186 5.59992 16.2043C5.59992 16.3095 5.64672 16.6206 5.70399 16.8957C6.14157 18.9987 7.34228 20.7195 9.1424 21.8232L9.70847 22.1703L9.6898 23.3671L9.67118 24.5638L7.56124 25.0941C5.04178 25.7272 4.52832 25.9413 3.4897 26.7921C2.91008 27.2669 2.04184 28.4792 2.04184 28.8137C2.04184 28.9915 2.35946 29.2575 2.56905 29.2551C2.82037 29.2522 2.93498 29.156 3.17392 28.7469C3.61177 27.9972 4.60379 27.1236 5.43323 26.7571C5.78268 26.6027 7.32394 26.1808 7.53859 26.1808C7.59319 26.1808 7.65888 26.2654 7.68461 26.3688C7.79744 26.8222 8.10788 27.4871 8.44672 28.0009C9.91436 30.2263 12.8565 31.0483 15.3162 29.9202C16.6575 29.3051 17.7735 28.0228 18.2284 26.5739C18.3053 26.3293 18.3899 26.1808 18.4526 26.1808C18.6548 26.1808 20.2184 26.6138 20.5627 26.7651C21.7983 27.3082 22.8541 28.498 23.3101 29.8611C23.4769 30.3596 23.4868 30.4734 23.5122 32.1799L23.5389 33.9745H21.6172H19.6954V33.0174C19.6954 32.1514 19.6824 32.0473 19.5585 31.9235C19.3857 31.7508 19.0743 31.748 18.8648 31.9173C18.711 32.0415 18.7021 32.0944 18.6809 33.0112L18.6587 33.9745H12.9898H7.32087L7.29863 33.0112C7.27742 32.0944 7.26852 32.0415 7.11477 31.9173C6.90525 31.748 6.59385 31.7508 6.42101 31.9235C6.29716 32.0473 6.28416 32.1514 6.28416 33.0174V33.9745H4.36827H2.45238V32.4332V30.8918L2.2844 30.7241C2.07037 30.5101 1.80803 30.5101 1.594 30.7241L1.42601 30.8918V32.7781V34.6644L1.594 34.8322L1.76191 35H12.9898H24.2176L24.3856 34.8322L24.5535 34.6644V32.7204C24.5535 30.5163 24.4903 30.0038 24.1024 29.0669C23.5205 27.6609 22.543 26.6147 21.1827 25.9415C20.6572 25.6814 20.1934 25.539 18.4295 25.0963L16.3084 24.5638L16.2897 23.3577L16.271 22.1516L16.5292 22.0187C16.9274 21.8137 17.7059 21.2462 18.1092 20.8671C18.4404 20.5556 18.4711 20.5017 18.4513 20.2661C18.4241 19.9421 18.1583 19.7133 17.888 19.781C17.7906 19.8055 17.5066 20.0105 17.2568 20.2366C16.3482 21.0593 15.169 21.6198 13.9434 21.8114C13.1817 21.9305 11.9923 21.8541 11.2595 21.6391C8.95019 20.9615 7.20913 19.0995 6.73494 16.8005C6.54247 15.8673 6.57079 15.6825 7.05018 14.743C7.51553 13.831 7.84336 13.4492 8.38535 13.1875C8.68347 13.0436 8.84366 13.0249 10.1502 12.9816C12.4112 12.9068 13.3885 12.6599 14.6662 11.8409C15.4825 11.3177 15.8927 10.9227 16.6893 9.89334C16.793 9.75934 16.8047 9.75859 17.0433 9.87173C17.1872 9.93996 17.3326 10.079 17.3924 10.2056C17.4487 10.3249 17.913 11.5632 18.4241 12.9574C19.4508 15.7585 19.4554 15.7796 19.2452 16.7962C19.1858 17.0837 19.0626 17.5167 18.9715 17.7586C18.76 18.3202 18.7626 18.4799 18.9862 18.6556C19.2232 18.8419 19.4587 18.8349 19.6581 18.6357C19.8641 18.4298 20.2293 17.3018 20.3278 16.5668L20.4023 16.0112L20.8247 15.9773C22.2188 15.8655 23.3051 14.5626 23.1601 13.1765C23.0848 12.4572 22.7054 11.7806 22.1479 11.3717L21.8166 11.1287V9.88213V8.63554L23.1337 7.99079C24.223 7.4576 24.4675 7.31123 24.5465 7.14483C24.673 6.87861 24.575 6.70277 24.074 6.29695C23.8673 6.12953 23.6903 5.97345 23.6806 5.95007C23.671 5.92669 24.1635 5.66061 24.775 5.35877C25.968 4.76994 26.097 4.65077 25.9523 4.27121C25.8644 4.04034 22.882 1.70585 22.6751 1.70585C22.4517 1.70585 22.2825 1.8581 21.2697 2.97L20.3653 3.96288L20.1213 3.63766C19.6201 2.96973 19.1267 2.45268 18.5304 1.97036L17.9164 1.47375V0.903028C17.9164 0.388234 17.8999 0.315903 17.7484 0.164541C17.3994 -0.184193 16.89 0.0794938 16.89 0.608919C16.89 0.761033 16.8734 0.885458 16.853 0.885458C16.8327 0.885458 16.7019 0.827347 16.5622 0.756315C16.4226 0.685352 16.1841 0.590118 16.0322 0.544792C15.8512 0.490783 15.7173 0.394797 15.6434 0.266201C15.4997 0.0161187 15.2158 -0.0608612 14.966 0.0823652C14.8129 0.170147 14.7254 0.176026 14.4831 0.114976C14.0961 0.0173493 11.879 0.0185115 11.4895 0.11648C11.2447 0.178077 11.1598 0.173907 11.0466 0.094671C10.8173 -0.0657835 10.5973 -0.0228498 10.3647 0.227848C10.2438 0.358153 9.9561 0.538844 9.7054 0.641939C9.46078 0.742505 9.22218 0.841773 9.1751 0.862487C9.11434 0.88915 9.08957 0.817776 9.08957 0.616234C9.08957 0.0927568 8.63106 -0.166213 8.2435 0.138425ZM12.4555 2.93466C12.476 4.79851 12.4804 4.85088 12.6267 4.99705C12.8234 5.19339 13.1561 5.19339 13.3528 4.99705C13.4991 4.85095 13.5035 4.79838 13.524 2.9417L13.545 1.03627L13.8319 1.0723C13.9897 1.09213 14.2419 1.12829 14.3925 1.15263L14.6662 1.19686L14.6841 3.85773C14.7018 6.47894 14.7042 6.52092 14.85 6.67591C15.0307 6.86815 15.3127 6.87923 15.531 6.70264L15.6926 6.57206L15.7268 4.04225L15.761 1.51244L16.3255 1.78214L16.89 2.05192V3.23697C16.89 4.31373 16.9024 4.43775 17.0252 4.59376C17.1984 4.81389 17.365 4.85505 17.6305 4.74348C17.8908 4.63416 17.9123 4.55034 17.9337 3.56109L17.9506 2.78418L18.3959 3.21926C18.83 3.64334 19.3911 4.32699 19.5464 4.62083C19.6133 4.74758 19.5875 4.80788 19.3516 5.07567C19.1542 5.2997 19.0796 5.44512 19.0796 5.60564C19.0796 5.8279 19.1201 5.87623 19.7216 6.37175L19.9189 6.53425L18.9765 7.76053C18.4581 8.43496 17.9977 9.02625 17.9534 9.07445C17.8886 9.14501 17.814 9.12949 17.5696 8.99439C17.2219 8.80215 16.7259 8.71177 16.3774 8.77706C16.1804 8.81398 16.093 8.89171 15.8881 9.21207C15.3421 10.0658 14.2817 10.9768 13.3557 11.388C12.4776 11.7778 11.7804 11.8998 10.1159 11.9548C8.79384 11.9986 8.52534 12.0259 8.21504 12.1484C7.68235 12.3586 7.20885 12.6847 6.86365 13.079L6.55786 13.4283V12.2585C6.55786 11.2555 6.54178 11.0753 6.4451 10.9948C6.37962 10.9404 6.0999 10.8867 5.77796 10.8669L5.22358 10.8327L5.20442 9.99937L5.18519 9.16599L6.58715 9.84555C7.35816 10.2192 8.05328 10.525 8.13183 10.525C8.32773 10.525 8.6106 10.2263 8.6106 10.0195C8.6106 9.84343 8.57126 9.78805 6.98045 7.72635L6.06062 6.53425L6.25796 6.37175C6.86919 5.86823 6.89999 5.8307 6.89999 5.58868C6.89999 5.43315 6.8499 5.30524 6.75575 5.22019C6.67644 5.14855 6.55389 5.00922 6.48355 4.91056L6.35553 4.73117L6.68643 4.26109C6.86837 4.00253 7.24491 3.56506 7.52313 3.28893L8.02899 2.78692L8.04582 3.56239C8.06724 4.55021 8.08879 4.63416 8.34901 4.74348C8.61457 4.85505 8.78112 4.81389 8.95437 4.59376C9.07726 4.43768 9.08957 4.31366 9.08957 3.23041V2.03872L9.65408 1.77825L10.2186 1.51777L10.2528 4.04492L10.287 6.57206L10.4486 6.70264C10.6669 6.87923 10.9488 6.86815 11.1296 6.67591C11.2753 6.52092 11.2778 6.47894 11.2954 3.85582L11.3134 1.1931L11.7923 1.11578C12.0558 1.07319 12.308 1.03477 12.3529 1.03033C12.4138 1.02424 12.4398 1.50588 12.4555 2.93466ZM23.5272 3.55583C23.96 3.89581 24.3568 4.21624 24.4091 4.26793C24.4899 4.34771 24.3383 4.44479 23.3977 4.91535C22.2396 5.49475 22.0964 5.6189 22.184 5.96764C22.2085 6.06513 22.4196 6.29087 22.6795 6.49747L23.1323 6.85749L22.731 7.06156C21.2041 7.83799 19.6881 8.5293 19.7718 8.41096C19.8239 8.3374 20.1513 7.90458 20.4994 7.44912C21.3134 6.38412 21.3199 6.30304 20.6338 5.78018C20.494 5.67366 20.3796 5.55874 20.3796 5.52483C20.3796 5.46132 22.6449 2.94457 22.7061 2.94012C22.7249 2.93876 23.0944 3.21584 23.5272 3.55583ZM8.21196 6.17109C8.08572 6.30543 8.0632 6.40935 8.0632 6.8579C8.0632 7.32791 8.08182 7.40503 8.23119 7.5542C8.44522 7.76812 8.70756 7.76812 8.92159 7.5542C9.07042 7.40557 9.08957 7.3273 9.08957 6.86747C9.08957 6.40764 9.07042 6.32936 8.92159 6.18073C8.70612 5.96538 8.40923 5.96135 8.21196 6.17109ZM17.058 6.18073C16.9091 6.32936 16.89 6.40764 16.89 6.86747C16.89 7.3273 16.9091 7.40557 17.058 7.5542C17.1503 7.6465 17.3057 7.72204 17.4032 7.72204C17.5007 7.72204 17.656 7.6465 17.7484 7.5542C17.8983 7.40448 17.9164 7.32846 17.9164 6.84832C17.9164 6.37421 17.8975 6.29251 17.758 6.16152C17.5479 5.96436 17.2668 5.97208 17.058 6.18073ZM12.6526 6.48653C12.3822 6.75665 12.3915 7.67405 12.6672 7.93062C12.8509 8.10168 13.1296 8.10079 13.3146 7.92857C13.59 7.6722 13.5964 6.75576 13.3246 6.48421C13.1574 6.31712 12.821 6.31828 12.6526 6.48653ZM20.7605 10.7772C20.7362 10.8404 20.5706 10.8669 20.199 10.8669C19.451 10.8669 19.4217 10.9026 19.4217 11.8141C19.4217 12.2238 19.3962 12.507 19.3626 12.47C19.3002 12.4016 18.5909 10.482 18.5754 10.3396C18.5705 10.2941 19.059 10.0146 19.6612 9.71866L20.756 9.18056L20.7755 9.93408C20.7862 10.3485 20.7794 10.7279 20.7605 10.7772ZM5.53149 13.4306V14.9688L5.2749 14.9673C4.53626 14.963 3.82088 14.1988 3.82088 13.4142C3.82088 12.6553 4.54508 11.8981 5.2749 11.8939L5.53149 11.8924V13.4306ZM21.2349 12.0222C21.759 12.2652 22.1587 12.8675 22.1587 13.4142C22.1587 14.1988 21.4433 14.963 20.7047 14.9673L20.4481 14.9688V13.4306V11.8924L20.7047 11.8939C20.8458 11.8947 21.0844 11.9524 21.2349 12.0222ZM8.64173 14.5214C8.44734 14.7155 8.43434 14.8798 8.5757 15.3554C8.75142 15.9465 9.27548 16.3763 9.91272 16.4517C10.842 16.5616 11.684 15.8503 11.6882 14.9517C11.6899 14.5764 11.5231 14.3535 11.2404 14.3535C10.9384 14.3535 10.8081 14.476 10.6943 14.8673C10.5749 15.2775 10.3996 15.4474 10.0955 15.4474C9.82767 15.4474 9.50012 15.1144 9.50012 14.8423C9.50012 14.7018 9.44312 14.5921 9.31982 14.4952C9.08068 14.3072 8.84694 14.3163 8.64173 14.5214ZM14.4267 14.4903C14.2493 14.6675 14.2456 15.1727 14.4189 15.5538C14.5822 15.9128 15.0353 16.2972 15.4233 16.4057C16.3986 16.6786 17.3397 16.0421 17.4807 15.0141C17.5177 14.7442 17.5012 14.6845 17.3464 14.5299C17.1331 14.3167 16.9017 14.3051 16.6597 14.4952C16.5364 14.5921 16.4794 14.7018 16.4794 14.8423C16.4794 15.1144 16.1519 15.4474 15.8841 15.4474C15.58 15.4474 15.4046 15.2775 15.2852 14.8673C15.2223 14.6508 15.1214 14.4641 15.0456 14.4235C14.839 14.3131 14.5757 14.3414 14.4267 14.4903ZM12.0129 19.0965C11.5869 19.275 11.4998 19.3309 11.1594 19.6446C10.8813 19.901 10.8651 20.1674 11.1126 20.4146C11.3273 20.6292 11.5934 20.5998 11.9189 20.3256C12.2357 20.0586 12.5519 19.9483 12.9943 19.9504C13.4388 19.9525 13.7464 20.0608 14.0606 20.3256C14.3861 20.5998 14.6522 20.6292 14.8669 20.4146C15.1236 20.1582 15.0984 19.9049 14.7859 19.6009C14.6448 19.4637 14.3446 19.2654 14.1188 19.1603C13.7757 19.0006 13.6014 18.966 13.0582 18.95C12.4981 18.9336 12.3535 18.9539 12.0129 19.0965ZM12.9898 22.8532C13.983 22.8546 14.2786 22.8309 14.7232 22.7142L15.2591 22.5735L15.2359 24.0524C15.2126 25.5307 15.2125 25.5315 15.0125 25.9272C14.7778 26.3914 14.3406 26.8181 13.8913 27.0214C13.4338 27.2285 12.5343 27.2299 12.0882 27.0242C11.6366 26.8159 11.2008 26.3895 10.9671 25.9272C10.7671 25.5315 10.767 25.5307 10.7437 24.0524L10.7204 22.5735L11.2564 22.7125C11.6945 22.8262 12.011 22.8519 12.9898 22.8532ZM9.89986 26.0108C10.4353 27.5976 12.1644 28.5459 13.7635 28.1298C14.6938 27.8877 15.4857 27.2587 15.8987 26.4338C16.03 26.1718 16.1373 25.899 16.1373 25.8276C16.1373 25.6299 16.2761 25.6154 16.8285 25.755C17.4192 25.9043 17.4186 25.9022 17.0883 26.6936C16.5475 27.9893 15.3504 28.9895 13.9743 29.2954C13.303 29.4446 12.2559 29.4016 11.6203 29.1988C11.1031 29.0339 10.4627 28.6624 9.98416 28.25C9.42068 27.7643 8.75723 26.6532 8.66897 26.0474C8.64687 25.8957 8.68299 25.8713 9.08957 25.7631C9.71758 25.5959 9.76472 25.6103 9.89986 26.0108Z" fill="#9C449C"/>
</svg>
